<svg width="27" height="26" viewBox="0 0 27 26" fill="none" xmlns="http://www.w3.org/2000/svg">
<path d="M5.84523 19.6297C6.94315 18.7901 8.17023 18.1281 9.52648 17.6437C10.8827 17.1593 12.3036 16.9172 13.789 16.9172C15.2744 16.9172 16.6952 17.1593 18.0515 17.6437C19.4077 18.1281 20.6348 18.7901 21.7327 19.6297C22.4862 18.747 23.0728 17.746 23.4926 16.6265C23.9124 15.5071 24.1223 14.3123 24.1223 13.0422C24.1223 10.179 23.1159 7.74094 21.103 5.72809C19.0902 3.71525 16.6522 2.70882 13.789 2.70882C10.9258 2.70882 8.48777 3.71525 6.47492 5.72809C4.46207 7.74094 3.45565 10.179 3.45565 13.0422C3.45565 14.3123 3.66554 15.5071 4.08534 16.6265C4.50513 17.746 5.09176 18.747 5.84523 19.6297ZM13.789 14.3338C12.5188 14.3338 11.4478 13.8979 10.576 13.026C9.70409 12.1541 9.26815 11.0831 9.26815 9.81299C9.26815 8.54285 9.70409 7.47184 10.576 6.59997C11.4478 5.72809 12.5188 5.29215 13.789 5.29215C15.0591 5.29215 16.1301 5.72809 17.002 6.59997C17.8739 7.47184 18.3098 8.54285 18.3098 9.81299C18.3098 11.0831 17.8739 12.1541 17.002 13.026C16.1301 13.8979 15.0591 14.3338 13.789 14.3338ZM13.789 25.9588C12.0022 25.9588 10.323 25.6198 8.75148 24.9416C7.17995 24.2635 5.81294 23.3432 4.65044 22.1807C3.48794 21.0182 2.56763 19.6512 1.8895 18.0797C1.21138 16.5081 0.872314 14.829 0.872314 13.0422C0.872314 11.2553 1.21138 9.57618 1.8895 8.00465C2.56763 6.43313 3.48794 5.06611 4.65044 3.90361C5.81294 2.74111 7.17995 1.8208 8.75148 1.14268C10.323 0.464551 12.0022 0.125488 13.789 0.125488C15.5758 0.125488 17.255 0.464551 18.8265 1.14268C20.398 1.8208 21.765 2.74111 22.9275 3.90361C24.09 5.06611 25.0103 6.43313 25.6885 8.00465C26.3666 9.57618 26.7056 11.2553 26.7056 13.0422C26.7056 14.829 26.3666 16.5081 25.6885 18.0797C25.0103 19.6512 24.09 21.0182 22.9275 22.1807C21.765 23.3432 20.398 24.2635 18.8265 24.9416C17.255 25.6198 15.5758 25.9588 13.789 25.9588Z" fill="#C29C78"/>
<path d="M5.84523 19.6297C6.94315 18.7901 8.17023 18.1281 9.52648 17.6437C10.8827 17.1593 12.3036 16.9172 13.789 16.9172C15.2744 16.9172 16.6952 17.1593 18.0515 17.6437C19.4077 18.1281 20.6348 18.7901 21.7327 19.6297C22.4862 18.747 23.0728 17.746 23.4926 16.6265C23.9124 15.5071 24.1223 14.3123 24.1223 13.0422C24.1223 10.179 23.1159 7.74094 21.103 5.72809C19.0902 3.71525 16.6522 2.70882 13.789 2.70882C10.9258 2.70882 8.48777 3.71525 6.47492 5.72809C4.46207 7.74094 3.45565 10.179 3.45565 13.0422C3.45565 14.3123 3.66554 15.5071 4.08534 16.6265C4.50513 17.746 5.09176 18.747 5.84523 19.6297ZM13.789 14.3338C12.5188 14.3338 11.4478 13.8979 10.576 13.026C9.70409 12.1541 9.26815 11.0831 9.26815 9.81299C9.26815 8.54285 9.70409 7.47184 10.576 6.59997C11.4478 5.72809 12.5188 5.29215 13.789 5.29215C15.0591 5.29215 16.1301 5.72809 17.002 6.59997C17.8739 7.47184 18.3098 8.54285 18.3098 9.81299C18.3098 11.0831 17.8739 12.1541 17.002 13.026C16.1301 13.8979 15.0591 14.3338 13.789 14.3338ZM13.789 25.9588C12.0022 25.9588 10.323 25.6198 8.75148 24.9416C7.17995 24.2635 5.81294 23.3432 4.65044 22.1807C3.48794 21.0182 2.56763 19.6512 1.8895 18.0797C1.21138 16.5081 0.872314 14.829 0.872314 13.0422C0.872314 11.2553 1.21138 9.57618 1.8895 8.00465C2.56763 6.43313 3.48794 5.06611 4.65044 3.90361C5.81294 2.74111 7.17995 1.8208 8.75148 1.14268C10.323 0.464551 12.0022 0.125488 13.789 0.125488C15.5758 0.125488 17.255 0.464551 18.8265 1.14268C20.398 1.8208 21.765 2.74111 22.9275 3.90361C24.09 5.06611 25.0103 6.43313 25.6885 8.00465C26.3666 9.57618 26.7056 11.2553 26.7056 13.0422C26.7056 14.829 26.3666 16.5081 25.6885 18.0797C25.0103 19.6512 24.09 21.0182 22.9275 22.1807C21.765 23.3432 20.398 24.2635 18.8265 24.9416C17.255 25.6198 15.5758 25.9588 13.789 25.9588Z" fill="#AD6B2A"/>
</svg>
