<svg width="114" height="112" viewBox="0 0 114 112" fill="none" xmlns="http://www.w3.org/2000/svg">
<g filter="url(#filter0_d_530_1647)">
<rect x="4.0105" y="0.762207" width="105.993" height="102.476" rx="8.06894" fill="#4A744C"/>
<path d="M52.9148 55.9768H32.339C30.1427 55.9768 28.3622 54.1963 28.3622 52C28.3622 49.8036 30.1427 48.0231 32.339 48.0231H52.9148V28.1966C52.9148 25.9684 54.7211 24.1621 56.9493 24.1621H57.0646C59.2927 24.1621 61.099 25.9684 61.099 28.1966V48.0231H81.6748C83.8712 48.0231 85.6517 49.8036 85.6517 52C85.6517 54.1963 83.8712 55.9768 81.6748 55.9768H61.099V75.8033C61.099 78.0315 59.2927 79.8378 57.0646 79.8378H56.9493C54.7211 79.8378 52.9148 78.0315 52.9148 75.8033V55.9768Z" fill="#FAFAFA"/>
</g>
<defs>
<filter id="filter0_d_530_1647" x="0.00695801" y="0.762207" width="114" height="110.476" filterUnits="userSpaceOnUse" color-interpolation-filters="sRGB">
<feFlood flood-opacity="0" result="BackgroundImageFix"/>
<feColorMatrix in="SourceAlpha" type="matrix" values="0 0 0 0 0 0 0 0 0 0 0 0 0 0 0 0 0 0 127 0" result="hardAlpha"/>
<feOffset dy="4"/>
<feGaussianBlur stdDeviation="2"/>
<feComposite in2="hardAlpha" operator="out"/>
<feColorMatrix type="matrix" values="0 0 0 0 0 0 0 0 0 0 0 0 0 0 0 0 0 0 0.5 0"/>
<feBlend mode="normal" in2="BackgroundImageFix" result="effect1_dropShadow_530_1647"/>
<feBlend mode="normal" in="SourceGraphic" in2="effect1_dropShadow_530_1647" result="shape"/>
</filter>
</defs>
</svg>
