<svg width="27" height="27" viewBox="0 0 27 27" fill="none" xmlns="http://www.w3.org/2000/svg">
<rect width="26.9072" height="26.9072" rx="6.31396" fill="#4A744C"/>
<path d="M12.2697 14.6374H6.35037C5.69654 14.6374 5.1665 14.1074 5.1665 13.4536C5.1665 12.7997 5.69654 12.2697 6.35037 12.2697H12.2697V6.35037C12.2697 5.69654 12.7997 5.1665 13.4536 5.1665C14.1074 5.1665 14.6374 5.69654 14.6374 6.35037V12.2697H20.5568C21.2106 12.2697 21.7406 12.7997 21.7406 13.4536C21.7406 14.1074 21.2106 14.6374 20.5568 14.6374H14.6374V20.5568C14.6374 21.2106 14.1074 21.7406 13.4536 21.7406C12.7997 21.7406 12.2697 21.2106 12.2697 20.5568V14.6374Z" fill="#FAFAFA"/>
</svg>
