<svg width="46" height="41" viewBox="0 0 46 41" fill="none" xmlns="http://www.w3.org/2000/svg">
<mask id="mask0_776_1570" style="mask-type:alpha" maskUnits="userSpaceOnUse" x="0" y="0" width="46" height="41">
<rect y="0.69165" width="46" height="40" fill="#79280F"/>
</mask>
<g mask="url(#mask0_776_1570)">
<path d="M4.4197 40.3831C2.89004 40.3831 1.92661 38.7357 2.67654 37.4025L21.7569 3.48199C22.5215 2.12268 24.4785 2.12269 25.2432 3.48199L44.3235 37.4025C45.0734 38.7357 44.11 40.3831 42.5803 40.3831H4.4197ZM8.89839 34.6811C8.52224 35.3477 9.00388 36.1725 9.76931 36.1725H37.2307C37.9961 36.1725 38.4778 35.3477 38.1016 34.6811L24.3709 10.3475C23.9883 9.66946 23.0117 9.66946 22.6291 10.3475L8.89839 34.6811ZM23.5 34.0673C24.0795 34.0673 24.5653 33.8655 24.9574 33.462C25.3494 33.0585 25.5455 32.5585 25.5455 31.962C25.5455 31.3655 25.3494 30.8655 24.9574 30.462C24.5653 30.0585 24.0795 29.8567 23.5 29.8567C22.9205 29.8567 22.4347 30.0585 22.0426 30.462C21.6506 30.8655 21.4545 31.3655 21.4545 31.962C21.4545 32.5585 21.6506 33.0585 22.0426 33.462C22.4347 33.8655 22.9205 34.0673 23.5 34.0673ZM21.4545 25.706C21.4545 26.8357 22.3703 27.7515 23.5 27.7515C24.6297 27.7515 25.5455 26.8357 25.5455 25.706V19.2706C25.5455 18.1409 24.6297 17.2252 23.5 17.2252C22.3703 17.2252 21.4545 18.1409 21.4545 19.2706V25.706Z" fill="#303030"/>
</g>
</svg>
