<svg width="59" height="58" viewBox="0 0 59 58" fill="none" xmlns="http://www.w3.org/2000/svg">
<mask id="mask0_413_470" style="mask-type:alpha" maskUnits="userSpaceOnUse" x="0" y="0" width="59" height="58">
<rect x="0.536133" width="57.9277" height="57.9277" fill="#797979"/>
</mask>
<g mask="url(#mask0_413_470)">
<path d="M37.9479 26.5502C38.9536 26.5502 39.8084 26.1982 40.5124 25.4943C41.2164 24.7903 41.5684 23.9354 41.5684 22.9297C41.5684 21.9241 41.2164 21.0692 40.5124 20.3652C39.8084 19.6613 38.9536 19.3093 37.9479 19.3093C36.9422 19.3093 36.0874 19.6613 35.3834 20.3652C34.6794 21.0692 34.3274 21.9241 34.3274 22.9297C34.3274 23.9354 34.6794 24.7903 35.3834 25.4943C36.0874 26.1982 36.9422 26.5502 37.9479 26.5502ZM21.0523 26.5502C22.058 26.5502 22.9128 26.1982 23.6168 25.4943C24.3208 24.7903 24.6728 23.9354 24.6728 22.9297C24.6728 21.9241 24.3208 21.0692 23.6168 20.3652C22.9128 19.6613 22.058 19.3093 21.0523 19.3093C20.0466 19.3093 19.1918 19.6613 18.4878 20.3652C17.7838 21.0692 17.4318 21.9241 17.4318 22.9297C17.4318 23.9354 17.7838 24.7903 18.4878 25.4943C19.1918 26.1982 20.0466 26.5502 21.0523 26.5502ZM29.5001 32.5844C26.7646 32.5844 24.2806 33.3588 22.0479 34.9075C20.6185 35.8991 19.4406 37.0926 18.5141 38.4882C17.752 39.6361 18.6855 41.0322 20.0633 41.0322C20.7513 41.0322 21.3768 40.6607 21.7886 40.1095C22.581 39.049 23.5524 38.1799 24.7029 37.5022C26.1712 36.6373 27.7703 36.2049 29.5001 36.2049C31.2299 36.2049 32.8289 36.6373 34.2972 37.5022C35.4477 38.1799 36.4192 39.049 37.2116 40.1095C37.6234 40.6607 38.2488 41.0322 38.9368 41.0322C40.3147 41.0322 41.2481 39.6361 40.486 38.4882C39.5596 37.0926 38.3816 35.8991 36.9522 34.9075C34.7196 33.3588 32.2356 32.5844 29.5001 32.5844ZM29.5001 53.1004C26.1612 53.1004 23.0234 52.4669 20.0868 51.1997C17.1502 49.9325 14.5958 48.2128 12.4235 46.0405C10.2512 43.8682 8.53145 41.3138 7.26428 38.3771C5.99711 35.4405 5.36353 32.3028 5.36353 28.9639C5.36353 25.625 5.99711 22.4872 7.26428 19.5506C8.53145 16.614 10.2512 14.0596 12.4235 11.8873C14.5958 9.71498 17.1502 7.99525 20.0868 6.72809C23.0234 5.46092 26.1612 4.82733 29.5001 4.82733C32.839 4.82733 35.9767 5.46092 38.9133 6.72809C41.85 7.99525 44.4044 9.71498 46.5767 11.8873C48.749 14.0596 50.4687 16.614 51.7359 19.5506C53.0031 22.4872 53.6366 25.625 53.6366 28.9639C53.6366 32.3028 53.0031 35.4405 51.7359 38.3771C50.4687 41.3138 48.749 43.8682 46.5767 46.0405C44.4044 48.2128 41.85 49.9325 38.9133 51.1997C35.9767 52.4669 32.839 53.1004 29.5001 53.1004ZM29.5001 48.2731C34.8906 48.2731 39.4564 46.4025 43.1976 42.6614C46.9387 38.9202 48.8093 34.3544 48.8093 28.9639C48.8093 23.5734 46.9387 19.0076 43.1976 15.2664C39.4564 11.5252 34.8906 9.65464 29.5001 9.65464C24.1096 9.65464 19.5438 11.5252 15.8026 15.2664C12.0614 19.0076 10.1908 23.5734 10.1908 28.9639C10.1908 34.3544 12.0614 38.9202 15.8026 42.6614C19.5438 46.4025 24.1096 48.2731 29.5001 48.2731Z" fill="#797979"/>
</g>
</svg>
