<svg width="34" height="34" viewBox="0 0 34 34" fill="none" xmlns="http://www.w3.org/2000/svg">
<circle cx="16.9573" cy="16.9573" r="16.9573" fill="#79280F"/>
<path d="M17.9248 13.397V11.1738H28.3991V13.397H24.4946V23.9273H21.8293V13.397H17.9248Z" fill="#FAFAFA"/>
<path d="M16.4769 15.6393H13.7493C13.6995 15.2864 13.5978 14.973 13.4442 14.699C13.2906 14.4208 13.0934 14.1842 12.8526 13.9891C12.6118 13.794 12.3337 13.6445 12.0181 13.5407C11.7068 13.4369 11.3684 13.385 11.0031 13.385C10.343 13.385 9.76802 13.549 9.27814 13.877C8.78826 14.2008 8.4084 14.6741 8.13855 15.2968C7.8687 15.9154 7.73377 16.6668 7.73377 17.5511C7.73377 18.4603 7.8687 19.2242 8.13855 19.8427C8.41255 20.4613 8.79449 20.9284 9.28437 21.2439C9.77424 21.5594 10.3409 21.7171 10.9844 21.7171C11.3456 21.7171 11.6798 21.6694 11.987 21.5739C12.2984 21.4784 12.5744 21.3394 12.8152 21.1567C13.056 20.9699 13.2553 20.7436 13.413 20.4779C13.575 20.2122 13.687 19.9092 13.7493 19.5687L16.4769 19.5812C16.4063 20.1665 16.2299 20.7312 15.9475 21.275C15.6694 21.8147 15.2937 22.2984 14.8204 22.726C14.3513 23.1494 13.7908 23.4857 13.139 23.7348C12.4914 23.9797 11.7587 24.1022 10.9408 24.1022C9.8033 24.1022 8.78618 23.8448 7.88946 23.33C6.99688 22.8152 6.29112 22.07 5.77218 21.0944C5.25739 20.1188 5 18.9377 5 17.5511C5 16.1603 5.26155 14.9772 5.78464 14.0015C6.30773 13.0259 7.01764 12.2828 7.91437 11.7722C8.81109 11.2574 9.81991 11 10.9408 11C11.6798 11 12.3648 11.1038 12.9958 11.3114C13.631 11.5189 14.1935 11.822 14.6834 12.2205C15.1733 12.6149 15.5718 13.0986 15.879 13.6715C16.1904 14.2444 16.3897 14.9003 16.4769 15.6393Z" fill="#FAFAFA"/>
</svg>
