<svg width="34" height="34" viewBox="0 0 34 34" fill="none" xmlns="http://www.w3.org/2000/svg">
<circle cx="16.9573" cy="16.9573" r="16.9573" fill="#EBB19F"/>
<path d="M19.4102 22.9273V10.1738H28.0038V12.397H22.1066V15.4359H27.5617V17.659H22.1066V20.7042H28.0287V22.9273H19.4102Z" fill="#FAFAFA"/>
<path d="M17.4769 14.6393H14.7493C14.6995 14.2864 14.5978 13.973 14.4442 13.699C14.2906 13.4208 14.0934 13.1842 13.8526 12.9891C13.6118 12.794 13.3337 12.6445 13.0181 12.5407C12.7068 12.4369 12.3684 12.385 12.0031 12.385C11.343 12.385 10.768 12.549 10.2781 12.877C9.78826 13.2008 9.4084 13.6741 9.13855 14.2968C8.8687 14.9154 8.73377 15.6668 8.73377 16.5511C8.73377 17.4603 8.8687 18.2242 9.13855 18.8427C9.41255 19.4613 9.79449 19.9284 10.2844 20.2439C10.7742 20.5594 11.3409 20.7171 11.9844 20.7171C12.3456 20.7171 12.6798 20.6694 12.987 20.5739C13.2984 20.4784 13.5744 20.3394 13.8152 20.1567C14.056 19.9699 14.2553 19.7436 14.413 19.4779C14.575 19.2122 14.687 18.9092 14.7493 18.5687L17.4769 18.5812C17.4063 19.1665 17.2299 19.7312 16.9475 20.275C16.6694 20.8147 16.2937 21.2984 15.8204 21.726C15.3513 22.1494 14.7908 22.4857 14.139 22.7348C13.4914 22.9797 12.7587 23.1022 11.9408 23.1022C10.8033 23.1022 9.78618 22.8448 8.88946 22.33C7.99688 21.8152 7.29112 21.07 6.77218 20.0944C6.25739 19.1188 6 17.9377 6 16.5511C6 15.1603 6.26155 13.9772 6.78464 13.0015C7.30773 12.0259 8.01764 11.2828 8.91437 10.7722C9.81109 10.2574 10.8199 10 11.9408 10C12.6798 10 13.3648 10.1038 13.9958 10.3114C14.631 10.5189 15.1935 10.822 15.6834 11.2205C16.1733 11.6149 16.5718 12.0986 16.879 12.6715C17.1904 13.2444 17.3897 13.9003 17.4769 14.6393Z" fill="#FAFAFA"/>
</svg>
