<svg width="27" height="28" viewBox="0 0 27 28" fill="none" xmlns="http://www.w3.org/2000/svg">
<rect y="0.814331" width="26.9072" height="26.9072" rx="6.31396" fill="#4A744C"/>
<path d="M7.6 22C7.16 22 6.78333 21.8435 6.47 21.5306C6.15667 21.2176 6 20.8414 6 20.402V9.21598C6 8.77653 6.15667 8.40033 6.47 8.08739C6.78333 7.77445 7.16 7.61798 7.6 7.61798H14.74L13.14 9.21598H7.6V20.402H18.8V14.8489L20.4 13.2509V20.402C20.4 20.8414 20.2433 21.2176 19.93 21.5306C19.6167 21.8435 19.24 22 18.8 22H7.6ZM10.8 17.206V13.8102L18.14 6.4794C18.3 6.3196 18.48 6.19975 18.68 6.11985C18.88 6.03995 19.08 6 19.28 6C19.4933 6 19.6967 6.03995 19.89 6.11985C20.0833 6.19975 20.26 6.3196 20.42 6.4794L21.54 7.61798C21.6867 7.77778 21.8 7.95422 21.88 8.14732C21.96 8.34041 22 8.53683 22 8.73658C22 8.93633 21.9633 9.13275 21.89 9.32584C21.8167 9.51893 21.7 9.69538 21.54 9.85518L17.87 13.5306L14.2 17.206H10.8ZM12.4 15.608H13.52L19.36 9.77528L18.8 9.21598L18.22 8.65668L12.4 14.4694V15.608Z" fill="#FAFAFA"/>
</svg>
