<svg width="35" height="35" viewBox="0 0 35 35" fill="none" xmlns="http://www.w3.org/2000/svg">
<circle cx="17.5001" cy="17.4539" r="16.9573" fill="white"/>
<path d="M20.392 23.9987C20.1098 23.9987 19.8494 23.8902 19.6107 23.6732C19.3937 23.4779 19.2852 23.2391 19.2852 22.957V12.4423C19.2852 11.8564 19.4805 11.4115 19.8711 11.1076C20.2835 10.8038 20.7175 10.6519 21.1732 10.6519H24.3635C25.1013 10.6519 25.785 10.8147 26.4143 11.1402C27.0654 11.444 27.5862 11.8889 27.9769 12.4749C28.3675 13.0391 28.5628 13.7227 28.5628 14.5257C28.5628 15.2853 28.335 16.0123 27.8792 16.7068C27.4452 17.3796 26.8809 17.8353 26.1864 18.074C26.4903 18.2042 26.7724 18.4213 27.0328 18.7251C27.315 19.0072 27.5645 19.387 27.7816 19.8645L28.9535 22.5013C29.0186 22.6315 29.0511 22.7725 29.0511 22.9245C29.0511 23.3151 28.9209 23.5972 28.6605 23.7708C28.4218 23.9445 28.1722 24.0313 27.9118 24.0313C27.4777 24.0313 27.1739 23.8251 27.0003 23.4128L25.6656 20.2876C25.3835 19.6583 25.0254 19.2242 24.5913 18.9855C24.1573 18.7468 23.6798 18.6274 23.159 18.6274H22.3452C21.7809 18.6274 21.4988 18.953 21.4988 19.604V22.957C21.4988 23.2391 21.3903 23.4779 21.1732 23.6732C20.9562 23.8902 20.6958 23.9987 20.392 23.9987ZM22.2149 16.6742H24.0379C24.5805 16.6742 25.1013 16.5006 25.6005 16.1534C26.1213 15.7844 26.3818 15.2636 26.3818 14.5908C26.3818 13.9398 26.143 13.4515 25.6656 13.1259C25.2098 12.8004 24.7107 12.6376 24.1681 12.6376H22.3126C21.7701 12.6376 21.4988 12.9089 21.4988 13.4515V15.9255C21.4988 16.4247 21.7375 16.6742 22.2149 16.6742Z" fill="black"/>
<path d="M16.6267 22.9573C16.2577 23.2394 15.6826 23.4781 14.9014 23.6735C14.1201 23.8905 13.3497 23.999 12.5901 23.999C11.3314 23.999 10.2028 23.706 9.20454 23.1201C8.20624 22.5341 7.41411 21.7203 6.82816 20.6786C6.2422 19.6369 5.94922 18.4432 5.94922 17.0977C5.94922 15.7739 6.23135 14.602 6.7956 13.582C7.35986 12.562 8.15199 11.7698 9.17199 11.2056C10.2137 10.6196 11.4182 10.3266 12.7854 10.3266C13.328 10.3266 13.8597 10.37 14.3805 10.4568C14.9231 10.5437 15.4656 10.6956 16.0082 10.9126C16.2252 11.0211 16.3771 11.173 16.4639 11.3683C16.5724 11.5419 16.6267 11.7156 16.6267 11.8892C16.6267 12.1713 16.529 12.4209 16.3337 12.6379C16.1601 12.8549 15.9214 12.9634 15.6175 12.9634C15.4873 12.9634 15.3354 12.9309 15.1618 12.8658C14.8146 12.7356 14.4022 12.6162 13.9248 12.5077C13.469 12.3992 13.0133 12.3449 12.5575 12.3449C11.6894 12.3449 10.9299 12.5728 10.2788 13.0285C9.62773 13.4626 9.11773 14.0486 8.7488 14.7864C8.40156 15.5243 8.22795 16.3381 8.22795 17.2279C8.22795 18.5517 8.62944 19.6803 9.43242 20.6135C10.2354 21.5466 11.2988 22.0132 12.6226 22.0132C13.2086 22.0132 13.7837 21.9264 14.348 21.7528C14.9122 21.5575 15.3354 21.3513 15.6175 21.1343C15.8563 21.0041 16.0624 20.939 16.236 20.939C16.5182 20.939 16.746 21.0475 16.9197 21.2645C17.0933 21.4598 17.1801 21.6877 17.1801 21.9481C17.1801 22.3388 16.9956 22.6752 16.6267 22.9573Z" fill="black"/>
</svg>
