<svg width="10" height="11" viewBox="0 0 10 11" fill="none" xmlns="http://www.w3.org/2000/svg">
<path d="M2.1249 9.78751C1.7383 10.1741 1.1115 10.1741 0.724902 9.78751C0.338303 9.40091 0.338303 8.77411 0.724902 8.38751L3.6249 5.48751L0.728562 2.61129C0.340339 2.22576 0.339245 1.59817 0.726122 1.21129C1.11205 0.825367 1.73776 0.825367 2.12368 1.21129L5.0249 4.11251L7.90234 1.21495C8.2872 0.8274 8.9137 0.826308 9.2999 1.21251C9.68611 1.59872 9.68501 2.22521 9.29747 2.61007L6.3999 5.48751L9.30112 8.38873C9.68705 8.77466 9.68705 9.40037 9.30112 9.78629C8.91424 10.1732 8.28666 10.1721 7.90113 9.78385L5.0249 6.88751L2.1249 9.78751Z" fill="#1C1B1F"/>
</svg>
