<svg width="23" height="22" viewBox="0 0 23 22" fill="none" xmlns="http://www.w3.org/2000/svg">
<path d="M11.3066 15.6756L5.27644 9.64539C4.73143 9.10038 4.7237 8.21914 5.25907 7.66465C5.80789 7.09623 6.71616 7.08826 7.27487 7.64697L9.90422 10.2763V1.65155C9.90422 0.877024 10.5321 0.249146 11.3066 0.249146C12.0811 0.249146 12.709 0.877022 12.709 1.65155V10.2763L15.3384 7.64697C15.8971 7.08826 16.8053 7.09623 17.3542 7.66465C17.8895 8.21914 17.8818 9.10038 17.3368 9.64539L11.3066 15.6756ZM2.89221 21.2852C2.12089 21.2852 1.46059 21.0105 0.911314 20.4613C0.362039 19.912 0.0874023 19.2517 0.0874023 18.4804V15.6756C0.0874023 14.901 0.715279 14.2732 1.4898 14.2732C2.26433 14.2732 2.89221 14.901 2.89221 15.6756V18.4804H19.721V15.6756C19.721 14.901 20.3489 14.2732 21.1234 14.2732C21.898 14.2732 22.5258 14.901 22.5258 15.6756V18.4804C22.5258 19.2517 22.2512 19.912 21.7019 20.4613C21.1527 21.0105 20.4924 21.2852 19.721 21.2852H2.89221Z" fill="#E8E8E8"/>
</svg>
