<svg width="27" height="28" viewBox="0 0 27 28" fill="none" xmlns="http://www.w3.org/2000/svg">
<rect y="0.721558" width="26.9072" height="26.9072" rx="6.31396" fill="#4A744C"/>
<path d="M8.57849 7.57849V12.3337V12.314V20.2064V7.57849ZM10.157 15.4709H12.9193C13.0377 15.1684 13.1824 14.8856 13.3534 14.6225C13.5244 14.3594 13.7217 14.1161 13.9454 13.8924H10.157V15.4709ZM10.157 18.6279H12.6628C12.5971 18.3648 12.5543 18.1018 12.5346 17.8387C12.5148 17.5756 12.5181 17.3125 12.5444 17.0494H10.157V18.6279ZM8.57849 21.7849C8.14441 21.7849 7.7728 21.6303 7.46368 21.3212C7.15456 21.0121 7 20.6405 7 20.2064V7.57849C7 7.14441 7.15456 6.7728 7.46368 6.46368C7.7728 6.15456 8.14441 6 8.57849 6H14.8925L19.6279 10.7355V12.7086C19.378 12.6033 19.1215 12.5211 18.8584 12.4619C18.5953 12.4027 18.3257 12.36 18.0494 12.3337V11.5247H14.1032V7.57849H8.57849V20.2064H13.3337C13.5442 20.5221 13.7809 20.8148 14.044 21.0844C14.3071 21.3541 14.5965 21.5876 14.9122 21.7849H8.57849ZM17.6548 19.4172C18.2073 19.4172 18.6742 19.2264 19.0557 18.845C19.4372 18.4635 19.6279 17.9965 19.6279 17.444C19.6279 16.8916 19.4372 16.4246 19.0557 16.0431C18.6742 15.6617 18.2073 15.4709 17.6548 15.4709C17.1023 15.4709 16.6354 15.6617 16.2539 16.0431C15.8724 16.4246 15.6817 16.8916 15.6817 17.444C15.6817 17.9965 15.8724 18.4635 16.2539 18.845C16.6354 19.2264 17.1023 19.4172 17.6548 19.4172ZM22.2324 22.0217C21.9273 22.3268 21.4326 22.3268 21.1275 22.0217L19.549 20.4432C19.2728 20.6273 18.9735 20.7655 18.6512 20.8575C18.329 20.9496 17.9968 20.9957 17.6548 20.9957C16.6683 20.9957 15.8297 20.6504 15.1391 19.9598C14.4485 19.2692 14.1032 18.4306 14.1032 17.444C14.1032 16.4575 14.4485 15.6189 15.1391 14.9283C15.8297 14.2377 16.6683 13.8924 17.6548 13.8924C18.6414 13.8924 19.4799 14.2377 20.1705 14.9283C20.8611 15.6189 21.2064 16.4575 21.2064 17.444C21.2064 17.7861 21.1604 18.1182 21.0683 18.4405C20.9762 18.7627 20.8381 19.062 20.6539 19.3382L22.2324 20.9167C22.5376 21.2218 22.5376 21.7165 22.2324 22.0217Z" fill="#FAFAFA"/>
</svg>
