<svg width="34" height="34" viewBox="0 0 34 34" fill="none" xmlns="http://www.w3.org/2000/svg">
<circle cx="16.9573" cy="16.9573" r="16.9573" fill="#4A744C"/>
<path d="M17.2578 23.7535V11H22.2895C23.2526 11 24.0746 11.1723 24.7555 11.5169C25.4405 11.8573 25.9615 12.3409 26.3185 12.9678C26.6797 13.5905 26.8603 14.3233 26.8603 15.166C26.8603 16.013 26.6776 16.7415 26.3123 17.3518C25.9469 17.9579 25.4176 18.4229 24.7243 18.7467C24.0352 19.0705 23.2007 19.2325 22.221 19.2325H18.852V17.0654H21.785C22.2998 17.0654 22.7274 16.9948 23.0679 16.8536C23.4083 16.7125 23.6615 16.5008 23.8276 16.2185C23.9978 15.9362 24.0829 15.5854 24.0829 15.166C24.0829 14.7426 23.9978 14.3856 23.8276 14.095C23.6615 13.8043 23.4062 13.5843 23.0616 13.4349C22.7212 13.2813 22.2915 13.2045 21.7726 13.2045H19.9542V23.7535H17.2578ZM24.1452 17.9496L27.3149 23.7535H24.3382L21.237 17.9496H24.1452Z" fill="#FAFAFA"/>
<path d="M7 23.7535V11H15.4442V13.2231H9.69641V16.262H14.8837V18.4852H9.69641V23.7535H7Z" fill="#FAFAFA"/>
</svg>
