<svg width="30" height="30" viewBox="0 0 30 30" fill="none" xmlns="http://www.w3.org/2000/svg">
<rect width="29.074" height="29.074" rx="6.5704" transform="matrix(1 0 0 -1 0 29.7028)" fill="#4A754A"/>
<path d="M12.5659 8.26684C12.0216 8.26684 11.5803 8.70809 11.5803 9.2524C11.5803 9.79671 12.0216 10.238 12.5659 10.238H22.4215C22.9658 10.238 23.4071 9.79671 23.4071 9.2524C23.4071 8.70809 22.9658 8.26684 22.4215 8.26684H12.5659ZM12.5659 14.1802C12.0216 14.1802 11.5803 14.6214 11.5803 15.1658C11.5803 15.7101 12.0216 16.1513 12.5659 16.1513H22.4215C22.9658 16.1513 23.4071 15.7101 23.4071 15.1658C23.4071 14.6214 22.9658 14.1802 22.4215 14.1802H12.5659ZM12.5659 20.0936C12.0216 20.0936 11.5803 20.5348 11.5803 21.0791C11.5803 21.6234 12.0216 22.0647 12.5659 22.0647H22.4215C22.9658 22.0647 23.4071 21.6234 23.4071 21.0791C23.4071 20.5348 22.9658 20.0936 22.4215 20.0936H12.5659ZM7.63811 7.28128C7.09605 7.28128 6.63202 7.47428 6.24601 7.86029C5.86 8.24631 5.66699 8.71034 5.66699 9.2524C5.66699 9.79446 5.86 10.2585 6.24601 10.6445C6.63202 11.0305 7.09605 11.2235 7.63811 11.2235C8.18017 11.2235 8.6442 11.0305 9.03021 10.6445C9.41623 10.2585 9.60923 9.79446 9.60923 9.2524C9.60923 8.71034 9.41623 8.24631 9.03021 7.86029C8.6442 7.47428 8.18017 7.28128 7.63811 7.28128ZM7.63811 13.1946C7.09605 13.1946 6.63202 13.3876 6.24601 13.7737C5.86 14.1597 5.66699 14.6237 5.66699 15.1658C5.66699 15.7078 5.86 16.1718 6.24601 16.5579C6.63202 16.9439 7.09605 17.1369 7.63811 17.1369C8.18017 17.1369 8.6442 16.9439 9.03021 16.5579C9.41623 16.1718 9.60923 15.7078 9.60923 15.1658C9.60923 14.6237 9.41623 14.1597 9.03021 13.7737C8.6442 13.3876 8.18017 13.1946 7.63811 13.1946ZM7.63811 19.108C7.09605 19.108 6.63202 19.301 6.24601 19.687C5.86 20.073 5.66699 20.5371 5.66699 21.0791C5.66699 21.6212 5.86 22.0852 6.24601 22.4712C6.63202 22.8572 7.09605 23.0502 7.63811 23.0502C8.18017 23.0502 8.6442 22.8572 9.03021 22.4712C9.41623 22.0852 9.60923 21.6212 9.60923 21.0791C9.60923 20.5371 9.41623 20.073 9.03021 19.687C8.6442 19.301 8.18017 19.108 7.63811 19.108Z" fill="#FAFAFA"/>
</svg>
