<svg width="29" height="29" viewBox="0 0 29 29" fill="none" xmlns="http://www.w3.org/2000/svg">
<rect x="1" y="0.907166" width="26.9072" height="26.9072" rx="6.31396" fill="#4A744C"/>
<path d="M11.3651 21.6117C10.9792 22.0179 10.3308 22.0151 9.94855 21.6055C9.59743 21.2293 9.60001 20.6447 9.95444 20.2716L11.7697 18.3608H5.95349C5.40121 18.3608 4.95349 17.9131 4.95349 17.3608C4.95349 16.8085 5.40121 16.3608 5.95349 16.3608H11.7697L9.95444 14.4499C9.60001 14.0768 9.59743 13.4923 9.94855 13.1161C10.3308 12.7065 10.9792 12.7036 11.3651 13.1098L15.4035 17.3608L11.3651 21.6117ZM18.9584 15.6055C18.5762 16.0151 17.9278 16.0179 17.5419 15.6117L13.5035 11.3608L17.5419 7.10982C17.9278 6.70362 18.5762 6.70649 18.9584 7.11608C19.3096 7.49228 19.307 8.07685 18.9525 8.44993L17.1372 10.3608H22.9535C23.5058 10.3608 23.9535 10.8085 23.9535 11.3608C23.9535 11.9131 23.5058 12.3608 22.9535 12.3608H17.1372L18.9525 14.2716C19.307 14.6447 19.3096 15.2293 18.9584 15.6055Z" fill="#FAFAFA"/>
</svg>
