<svg width="130" height="150" viewBox="0 0 130 150" fill="none" xmlns="http://www.w3.org/2000/svg">
<g filter="url(#filter0_i_488_1413)">
<mask id="mask0_488_1413" style="mask-type:alpha" maskUnits="userSpaceOnUse" x="0" y="0" width="130" height="150">
<rect x="0.0529785" y="0.969482" width="129.894" height="148.061" fill="#D9D9D9"/>
</mask>
<g mask="url(#mask0_488_1413)">
<path d="M16.4158 144.183C12.5699 144.183 9.27746 142.813 6.53865 140.075C3.79984 137.336 2.43043 134.043 2.43043 130.197V32.2996C2.43043 28.4536 3.79984 25.1612 6.53865 22.4224C9.27746 19.6836 12.5699 18.3142 16.4158 18.3142H45.7852C47.4168 14.1186 49.9808 10.7388 53.4772 8.17478C56.9735 5.61079 60.9361 4.3288 65.3648 4.3288C69.7935 4.3288 73.756 5.61079 77.2524 8.17478C80.7487 10.7388 83.3127 14.1186 84.9444 18.3142H114.314C118.16 18.3142 121.452 19.6836 124.191 22.4224C126.93 25.1612 128.299 28.4536 128.299 32.2996V130.197C128.299 134.043 126.93 137.336 124.191 140.075C121.452 142.813 118.16 144.183 114.314 144.183H16.4158ZM65.3648 27.0551C66.8799 27.0551 68.1327 26.5598 69.1234 25.5691C70.114 24.5785 70.6093 23.3256 70.6093 21.8106C70.6093 20.2955 70.114 19.0426 69.1234 18.052C68.1327 17.0613 66.8799 16.566 65.3648 16.566C63.8497 16.566 62.5968 17.0613 61.6062 18.052C60.6156 19.0426 60.1203 20.2955 60.1203 21.8106C60.1203 23.3256 60.6156 24.5785 61.6062 25.5691C62.5968 26.5598 63.8497 27.0551 65.3648 27.0551ZM16.4158 122.156C22.7093 115.979 30.0225 111.113 38.3555 107.559C46.6884 104.004 55.6915 102.227 65.3648 102.227C75.038 102.227 84.0411 104.004 92.3741 107.559C100.707 111.113 108.02 115.979 114.314 122.156V32.2996H16.4158V122.156ZM65.3648 88.2413C72.1244 88.2413 77.8934 85.8521 82.6717 81.0737C87.4501 76.2954 89.8393 70.5264 89.8393 63.7668C89.8393 57.0072 87.4501 51.2382 82.6717 46.4598C77.8934 41.6815 72.1244 39.2923 65.3648 39.2923C58.6052 39.2923 52.8362 41.6815 48.0578 46.4598C43.2795 51.2382 40.8903 57.0072 40.8903 63.7668C40.8903 70.5264 43.2795 76.2954 48.0578 81.0737C52.8362 85.8521 58.6052 88.2413 65.3648 88.2413Z" fill="#C29C78"/>
<path d="M16.4158 144.183C12.5699 144.183 9.27746 142.813 6.53865 140.075C3.79984 137.336 2.43043 134.043 2.43043 130.197V32.2996C2.43043 28.4536 3.79984 25.1612 6.53865 22.4224C9.27746 19.6836 12.5699 18.3142 16.4158 18.3142H45.7852C47.4168 14.1186 49.9808 10.7388 53.4772 8.17478C56.9735 5.61079 60.9361 4.3288 65.3648 4.3288C69.7935 4.3288 73.756 5.61079 77.2524 8.17478C80.7487 10.7388 83.3127 14.1186 84.9444 18.3142H114.314C118.16 18.3142 121.452 19.6836 124.191 22.4224C126.93 25.1612 128.299 28.4536 128.299 32.2996V130.197C128.299 134.043 126.93 137.336 124.191 140.075C121.452 142.813 118.16 144.183 114.314 144.183H16.4158ZM65.3648 27.0551C66.8799 27.0551 68.1327 26.5598 69.1234 25.5691C70.114 24.5785 70.6093 23.3256 70.6093 21.8106C70.6093 20.2955 70.114 19.0426 69.1234 18.052C68.1327 17.0613 66.8799 16.566 65.3648 16.566C63.8497 16.566 62.5968 17.0613 61.6062 18.052C60.6156 19.0426 60.1203 20.2955 60.1203 21.8106C60.1203 23.3256 60.6156 24.5785 61.6062 25.5691C62.5968 26.5598 63.8497 27.0551 65.3648 27.0551ZM16.4158 122.156C22.7093 115.979 30.0225 111.113 38.3555 107.559C46.6884 104.004 55.6915 102.227 65.3648 102.227C75.038 102.227 84.0411 104.004 92.3741 107.559C100.707 111.113 108.02 115.979 114.314 122.156V32.2996H16.4158V122.156ZM65.3648 88.2413C72.1244 88.2413 77.8934 85.8521 82.6717 81.0737C87.4501 76.2954 89.8393 70.5264 89.8393 63.7668C89.8393 57.0072 87.4501 51.2382 82.6717 46.4598C77.8934 41.6815 72.1244 39.2923 65.3648 39.2923C58.6052 39.2923 52.8362 41.6815 48.0578 46.4598C43.2795 51.2382 40.8903 57.0072 40.8903 63.7668C40.8903 70.5264 43.2795 76.2954 48.0578 81.0737C52.8362 85.8521 58.6052 88.2413 65.3648 88.2413Z" fill="#FFF6ED"/>
</g>
</g>
<defs>
<filter id="filter0_i_488_1413" x="2.43042" y="4.3288" width="125.869" height="143.854" filterUnits="userSpaceOnUse" color-interpolation-filters="sRGB">
<feFlood flood-opacity="0" result="BackgroundImageFix"/>
<feBlend mode="normal" in="SourceGraphic" in2="BackgroundImageFix" result="shape"/>
<feColorMatrix in="SourceAlpha" type="matrix" values="0 0 0 0 0 0 0 0 0 0 0 0 0 0 0 0 0 0 127 0" result="hardAlpha"/>
<feOffset dy="4"/>
<feGaussianBlur stdDeviation="2"/>
<feComposite in2="hardAlpha" operator="arithmetic" k2="-1" k3="1"/>
<feColorMatrix type="matrix" values="0 0 0 0 0 0 0 0 0 0 0 0 0 0 0 0 0 0 0.25 0"/>
<feBlend mode="normal" in2="shape" result="effect1_innerShadow_488_1413"/>
</filter>
</defs>
</svg>
