<svg width="233" height="49" viewBox="0 0 233 49" fill="none" xmlns="http://www.w3.org/2000/svg">
<g filter="url(#filter0_i_283_178)">
<path fill-rule="evenodd" clip-rule="evenodd" d="M166.069 48.4852C159.926 48.4852 155.177 46.8741 151.82 43.6518C148.497 40.4295 146.836 35.2773 146.836 28.195C146.836 21.1126 148.497 15.9604 151.82 12.7381C155.177 9.5158 159.926 7.90466 166.069 7.90466C172.211 7.90466 176.944 9.5158 180.267 12.7381C183.623 15.9604 185.302 21.1126 185.302 28.195C185.302 35.2773 183.623 40.4295 180.267 43.6518C176.944 46.8741 172.211 48.4852 166.069 48.4852ZM166.069 39.5233C167.21 39.5233 168.066 39.2212 168.636 38.617C169.207 38.0128 169.492 37.073 169.492 35.7975V20.5924C169.492 19.3169 169.207 18.3771 168.636 17.7729C168.066 17.1687 167.21 16.8666 166.069 16.8666C164.927 16.8666 164.071 17.1687 163.501 17.7729C162.93 18.3771 162.645 19.3169 162.645 20.5924V35.7975C162.645 37.1066 162.93 38.0632 163.501 38.6674C164.071 39.238 164.927 39.5233 166.069 39.5233ZM159.523 5.58864V4.83342L165.011 0H177.649V1.30905L169.442 5.58864H159.523ZM0 22.7671V0.200731H18.5814L17.5491 14.4349L0 22.7671ZM0 29.7106V24.6766L17.5491 16.518L16.0006 32.3144L13.2478 26.586V36.6541L0 29.7106ZM1.3764 32.3144V45.6807H14.4522V39.4315L1.3764 32.3144ZM17.5491 34.7446L20.3019 2.11019C20.3019 2.11019 27.0824 2.2057 30.6249 4.36683C34.582 6.78097 36.1305 9.92163 36.1305 9.92163L19.9578 40.1259L17.5491 34.7446ZM20.646 42.7297L23.5708 48.2845H38.023L29.0764 31.9672C29.0764 31.9672 34.6289 29.3634 37.1628 24.6766C39.6966 19.9897 37.1628 12.1783 37.1628 12.1783L20.646 42.7297ZM232.528 8.60949H216.014V16.8666H218.43V28.7991L205.189 8.60949H187.013V16.8666H189.531V39.5232H187.013V47.7803H203.527V39.5232H201.111V25.0733L215.863 47.7803H230.01V16.8666H232.528V8.60949ZM115.636 43.6517C119.093 46.874 123.994 48.4851 130.338 48.4851C133.493 48.4851 136.413 48.0991 139.098 47.3271C141.817 46.5551 143.864 45.6992 145.241 44.7594V31.7192H133.157V35.7974C133.157 37.0729 132.872 38.0127 132.301 38.6169C131.731 39.2211 130.875 39.5232 129.733 39.5232C128.592 39.5232 127.736 39.2211 127.166 38.6169C126.595 38.0127 126.31 37.0729 126.31 35.7974V20.5923C126.31 19.3168 126.595 18.377 127.166 17.7728C127.736 17.1686 128.592 16.8665 129.733 16.8665C130.875 16.8665 131.731 17.1686 132.301 17.7728C132.872 18.377 133.157 19.3168 133.157 20.5923V24.2174H145.241V11.6303C143.898 10.6905 141.851 9.83457 139.098 9.06256C136.379 8.29056 133.426 7.90456 130.237 7.90456C117.079 7.90456 110.5 14.668 110.5 28.1949C110.5 35.2772 112.212 40.4294 115.636 43.6517ZM92.3559 8.60949H108.87V16.8666H106.353V47.7803H92.2048L77.4529 25.0733V39.5232H79.8696V47.7803H63.3554V39.5232H65.8728V16.8666H63.3554V8.60949H81.5311L94.7726 28.7991V16.8666H92.3559V8.60949ZM41.3226 39.5232V47.7803H60.4549V39.5232H57.9375V16.8666H60.4549V8.60949H41.3226V16.8666H43.84V39.5232H41.3226Z" fill="#303030"/>
</g>
<defs>
<filter id="filter0_i_283_178" x="0" y="0" width="232.528" height="52.4852" filterUnits="userSpaceOnUse" color-interpolation-filters="sRGB">
<feFlood flood-opacity="0" result="BackgroundImageFix"/>
<feBlend mode="normal" in="SourceGraphic" in2="BackgroundImageFix" result="shape"/>
<feColorMatrix in="SourceAlpha" type="matrix" values="0 0 0 0 0 0 0 0 0 0 0 0 0 0 0 0 0 0 127 0" result="hardAlpha"/>
<feOffset dy="4"/>
<feGaussianBlur stdDeviation="2"/>
<feComposite in2="hardAlpha" operator="arithmetic" k2="-1" k3="1"/>
<feColorMatrix type="matrix" values="0 0 0 0 0 0 0 0 0 0 0 0 0 0 0 0 0 0 0.25 0"/>
<feBlend mode="normal" in2="shape" result="effect1_innerShadow_283_178"/>
</filter>
</defs>
</svg>
