<svg width="406" height="158" viewBox="0 0 406 158" fill="none" xmlns="http://www.w3.org/2000/svg">
<rect width="406" height="158" rx="10" fill="#6E6E6E"/>
<path d="M66.2 95.16H69.2V68.16H66.2V58.32H93.74C98.9 58.32 102.84 59.38 105.56 61.5C108.28 63.62 109.64 67.06 109.64 71.82C109.64 74.5 109.1 76.82 108.02 78.78C106.94 80.74 105.4 82.1 103.4 82.86L103.46 83.46C107.3 84.06 109.22 86.42 109.22 90.54V95.16H112.04V105H93.02V90.9C93.02 89.34 92.78 88.16 92.3 87.36C91.86 86.56 91.14 86.02 90.14 85.74C89.18 85.46 87.8 85.32 86 85.32V95.16H89.96V105H66.2V95.16ZM89.24 78C90.4 78 91.26 77.7 91.82 77.1C92.42 76.46 92.72 75.48 92.72 74.16V72C92.72 70.68 92.42 69.72 91.82 69.12C91.26 68.48 90.4 68.16 89.24 68.16H86V78H89.24ZM114.188 105V95.16H117.188V68.16H114.188V58.32H136.988V68.16H133.988V95.16H136.988V105H114.188ZM173.944 58.32H193.624V68.16H190.624V105H173.764L156.184 77.94V95.16H159.064V105H139.384V95.16H142.384V68.16H139.384V58.32H161.044L176.824 82.38V68.16H173.944V58.32ZM219.207 105.84C211.647 105.84 205.807 103.92 201.687 100.08C197.607 96.24 195.567 90.1 195.567 81.66C195.567 65.54 203.407 57.48 219.087 57.48C222.887 57.48 226.407 57.94 229.647 58.86C232.927 59.78 235.367 60.8 236.967 61.92V76.92H222.567V72.6C222.567 71.08 222.227 69.96 221.547 69.24C220.867 68.52 219.847 68.16 218.487 68.16C217.127 68.16 216.107 68.52 215.427 69.24C214.747 69.96 214.407 71.08 214.407 72.6V90.72C214.407 92.24 214.747 93.36 215.427 94.08C216.107 94.8 217.127 95.16 218.487 95.16C219.847 95.16 220.867 94.8 221.547 94.08C222.227 93.36 222.567 92.24 222.567 90.72V85.86H236.967V101.4C235.327 102.52 232.887 103.54 229.647 104.46C226.447 105.38 222.967 105.84 219.207 105.84ZM261.787 105.84C254.467 105.84 248.807 103.92 244.807 100.08C240.847 96.24 238.867 90.1 238.867 81.66C238.867 73.22 240.847 67.08 244.807 63.24C248.807 59.4 254.467 57.48 261.787 57.48C269.107 57.48 274.747 59.4 278.707 63.24C282.707 67.08 284.707 73.22 284.707 81.66C284.707 90.1 282.707 96.24 278.707 100.08C274.747 103.92 269.107 105.84 261.787 105.84ZM261.787 95.16C263.147 95.16 264.167 94.8 264.847 94.08C265.527 93.36 265.867 92.24 265.867 90.72V72.6C265.867 71.08 265.527 69.96 264.847 69.24C264.167 68.52 263.147 68.16 261.787 68.16C260.427 68.16 259.407 68.52 258.727 69.24C258.047 69.96 257.707 71.08 257.707 72.6V90.72C257.707 92.28 258.047 93.42 258.727 94.14C259.407 94.82 260.427 95.16 261.787 95.16ZM253.987 54.72V53.82L260.527 48.06H275.587V49.62L265.807 54.72H253.987ZM321.307 58.32H340.987V68.16H337.987V105H321.127L303.547 77.94V95.16H306.427V105H286.747V95.16H289.747V68.16H286.747V58.32H308.407L324.187 82.38V68.16H321.307V58.32Z" fill="white"/>
</svg>
