<svg width="233" height="50" viewBox="0 0 233 50" fill="none" xmlns="http://www.w3.org/2000/svg">
<path d="M0 23.5664V1.00005H18.5814L17.5491 15.2342L0 23.5664Z" fill="#FAFAFA"/>
<path d="M0 30.5099V25.4759L17.5491 17.3173L16.0006 33.1137L13.2478 27.3853V37.4534L0 30.5099Z" fill="#FAFAFA"/>
<path d="M1.3764 46.48V33.1137L14.4522 40.2308V46.48H1.3764Z" fill="#FAFAFA"/>
<path d="M17.5491 35.544L20.3019 2.90951C20.3019 2.90951 27.0824 3.00502 30.6249 5.16615C34.582 7.58029 36.1305 10.7209 36.1305 10.7209L19.9578 40.9252L17.5491 35.544Z" fill="#FAFAFA"/>
<path d="M23.5708 49.0838L20.646 43.529L37.1628 12.9776C37.1628 12.9776 39.6966 20.789 37.1628 25.4759C34.6289 30.1627 29.0764 32.7666 29.0764 32.7666L38.023 49.0838H23.5708Z" fill="#FAFAFA"/>
<path d="M216.013 9.40881H232.528V17.6659H230.01V48.5796H215.862L201.11 25.8726V40.3226H203.527V48.5796H187.013V40.3226H189.53V17.6659H187.013V9.40881H205.189L218.43 29.5984V17.6659H216.013V9.40881Z" fill="#FAFAFA"/>
<path d="M166.068 49.2846C159.926 49.2846 155.177 47.6734 151.82 44.4511C148.497 41.2289 146.836 36.0766 146.836 28.9943C146.836 21.912 148.497 16.7597 151.82 13.5374C155.177 10.3151 159.926 8.70397 166.068 8.70397C172.211 8.70397 176.944 10.3151 180.267 13.5374C183.623 16.7597 185.301 21.912 185.301 28.9943C185.301 36.0766 183.623 41.2289 180.267 44.4511C176.944 47.6734 172.211 49.2846 166.068 49.2846ZM166.068 40.3226C167.21 40.3226 168.066 40.0205 168.636 39.4163C169.207 38.8121 169.492 37.8723 169.492 36.5968V21.3917C169.492 20.1162 169.207 19.1764 168.636 18.5722C168.066 17.968 167.21 17.6659 166.068 17.6659C164.927 17.6659 164.071 17.968 163.501 18.5722C162.93 19.1764 162.645 20.1162 162.645 21.3917V36.5968C162.645 37.9059 162.93 38.8625 163.501 39.4667C164.071 40.0373 164.927 40.3226 166.068 40.3226ZM159.523 6.38796V5.63274L165.011 0.799316H177.649V2.10837L169.442 6.38796H159.523Z" fill="#FAFAFA"/>
<path d="M130.337 49.2845C123.994 49.2845 119.093 47.6733 115.636 44.451C112.212 41.2288 110.5 36.0765 110.5 28.9942C110.5 15.4673 117.079 8.70387 130.237 8.70387C133.426 8.70387 136.379 9.08988 139.098 9.86188C141.85 10.6339 143.898 11.4898 145.241 12.4296V25.0167H133.157V21.3916C133.157 20.1161 132.872 19.1763 132.301 18.5721C131.73 17.9679 130.875 17.6658 129.733 17.6658C128.592 17.6658 127.736 17.9679 127.166 18.5721C126.595 19.1763 126.31 20.1161 126.31 21.3916V36.5967C126.31 37.8722 126.595 38.812 127.166 39.4162C127.736 40.0204 128.592 40.3225 129.733 40.3225C130.875 40.3225 131.73 40.0204 132.301 39.4162C132.872 38.812 133.157 37.8722 133.157 36.5967V32.5185H145.241V45.5587C143.864 46.4985 141.817 47.3544 139.098 48.1265C136.413 48.8985 133.493 49.2845 130.337 49.2845Z" fill="#FAFAFA"/>
<path d="M92.3558 9.40881H108.87V17.6659H106.353V48.5796H92.2047L77.4527 25.8726V40.3226H79.8694V48.5796H63.3553V40.3226H65.8727V17.6659H63.3553V9.40881H81.5309L94.7725 29.5984V17.6659H92.3558V9.40881Z" fill="#FAFAFA"/>
<path d="M41.3225 48.5796V40.3226H43.8399V17.6659H41.3225V9.40881H60.4548V17.6659H57.9374V40.3226H60.4548V48.5796H41.3225Z" fill="#FAFAFA"/>
</svg>
