<svg width="34" height="34" viewBox="0 0 34 34" fill="none" xmlns="http://www.w3.org/2000/svg">
<circle cx="16.9573" cy="16.9573" r="16.9573" fill="#D3AA84"/>
<path d="M25.3853 11.0664H28.0817V19.3487C28.0817 20.2786 27.8596 21.0923 27.4154 21.7898C26.9753 22.4872 26.3588 23.0311 25.5659 23.4213C24.773 23.8074 23.8493 24.0005 22.7948 24.0005C21.7361 24.0005 20.8103 23.8074 20.0174 23.4213C19.2245 23.0311 18.608 22.4872 18.1679 21.7898C17.7278 21.0923 17.5078 20.2786 17.5078 19.3487V11.0664H20.2042V19.1183C20.2042 19.604 20.3101 20.0358 20.5218 20.4136C20.7377 20.7913 21.0408 21.0882 21.431 21.3041C21.8212 21.5199 22.2758 21.6279 22.7948 21.6279C23.3179 21.6279 23.7725 21.5199 24.1585 21.3041C24.5488 21.0882 24.8498 20.7913 25.0615 20.4136C25.2774 20.0358 25.3853 19.604 25.3853 19.1183V11.0664ZM21.842 9.83341L23.1622 7H25.6157L23.7164 9.83341H21.842Z" fill="#FAFAFA"/>
<path d="M6 23.8199V11.0664H11.0316C11.9948 11.0664 12.8168 11.2387 13.4976 11.5833C14.1826 11.9237 14.7037 12.4073 15.0607 13.0342C15.4219 13.657 15.6025 14.3897 15.6025 15.2325C15.6025 16.0794 15.4198 16.808 15.0545 17.4182C14.6891 18.0243 14.1598 18.4893 13.4665 18.8131C12.7774 19.137 11.9429 19.2989 10.9631 19.2989H7.59418V17.1318H10.5272C11.042 17.1318 11.4696 17.0612 11.81 16.92C12.1505 16.7789 12.4037 16.5672 12.5698 16.2849C12.74 16.0026 12.8251 15.6518 12.8251 15.2325C12.8251 14.809 12.74 14.452 12.5698 14.1614C12.4037 13.8708 12.1484 13.6507 11.8038 13.5013C11.4634 13.3477 11.0337 13.2709 10.5148 13.2709H8.69641V23.8199H6ZM12.8874 18.016L16.057 23.8199H13.0804L9.97923 18.016H12.8874Z" fill="#FAFAFA"/>
</svg>
