<svg width="34" height="34" viewBox="0 0 34 34" fill="none" xmlns="http://www.w3.org/2000/svg">
<circle cx="16.9573" cy="16.9573" r="16.9573" fill="#AD6B2A"/>
<path d="M17.0215 13.2231V11H27.4958V13.2231H23.5913V23.7535H20.926V13.2231H17.0215Z" fill="#FAFAFA"/>
<path d="M6 23.7535V11H11.0316C11.9948 11 12.8168 11.1723 13.4976 11.5169C14.1826 11.8573 14.7037 12.3409 15.0607 12.9678C15.4219 13.5905 15.6025 14.3233 15.6025 15.166C15.6025 16.013 15.4198 16.7415 15.0545 17.3518C14.6891 17.9579 14.1598 18.4229 13.4665 18.7467C12.7774 19.0705 11.9429 19.2325 10.9631 19.2325H7.59418V17.0654H10.5272C11.042 17.0654 11.4696 16.9948 11.81 16.8536C12.1505 16.7125 12.4037 16.5008 12.5698 16.2185C12.74 15.9362 12.8251 15.5854 12.8251 15.166C12.8251 14.7426 12.74 14.3856 12.5698 14.095C12.4037 13.8043 12.1484 13.5843 11.8038 13.4349C11.4634 13.2813 11.0337 13.2045 10.5148 13.2045H8.69641V23.7535H6ZM12.8874 17.9496L16.057 23.7535H13.0804L9.97923 17.9496H12.8874Z" fill="#FAFAFA"/>
</svg>
