<svg width="18" height="19" viewBox="0 0 18 19" fill="none" xmlns="http://www.w3.org/2000/svg">
<path d="M16.1255 18.1121L10.162 12.0484C9.68871 12.4334 9.14442 12.7382 8.52914 12.9627C7.91385 13.1873 7.25913 13.2996 6.56496 13.2996C4.84532 13.2996 3.38993 12.694 2.1988 11.4829C1.00767 10.2717 0.412109 8.7919 0.412109 7.04336C0.412109 5.29482 1.00767 3.81497 2.1988 2.60383C3.38993 1.39268 4.84532 0.787109 6.56496 0.787109C8.2846 0.787109 9.73999 1.39268 10.9311 2.60383C12.1222 3.81497 12.7178 5.29482 12.7178 7.04336C12.7178 7.74919 12.6074 8.41492 12.3865 9.04055C12.1656 9.66617 11.8659 10.2196 11.4872 10.7009L17.4508 16.7646L16.1255 18.1121ZM6.56496 11.3746C7.7482 11.3746 8.75395 10.9535 9.58222 10.1113C10.4105 9.26914 10.8246 8.24648 10.8246 7.04336C10.8246 5.84023 10.4105 4.81758 9.58222 3.97539C8.75395 3.1332 7.7482 2.71211 6.56496 2.71211C5.38172 2.71211 4.37596 3.1332 3.5477 3.97539C2.71943 4.81758 2.30529 5.84023 2.30529 7.04336C2.30529 8.24648 2.71943 9.26914 3.5477 10.1113C4.37596 10.9535 5.38172 11.3746 6.56496 11.3746Z" fill="#303030"/>
</svg>
