<svg width="34" height="34" viewBox="0 0 34 34" fill="none" xmlns="http://www.w3.org/2000/svg">
<circle cx="16.9573" cy="16.9573" r="16.9573" fill="#79280F"/>
<circle cx="16.9573" cy="16.9573" r="16.9573" fill="#A9CEAB"/>
<path d="M17.7188 13.4607V11.1787H28.4702V13.4607H24.4624V24.2696H21.7266V13.4607H17.7188Z" fill="#FAFAFA"/>
<path d="M13.5234 14.9439C13.4723 14.4283 13.2528 14.0277 12.8651 13.7422C12.4773 13.4567 11.951 13.3139 11.2862 13.3139C10.8345 13.3139 10.4531 13.3778 10.142 13.5057C9.83097 13.6293 9.59233 13.8018 9.42614 14.0234C9.2642 14.245 9.18324 14.4964 9.18324 14.7777C9.17472 15.0121 9.22372 15.2166 9.33026 15.3913C9.44105 15.5661 9.59233 15.7173 9.78409 15.8452C9.97585 15.9688 10.1974 16.0774 10.4489 16.1712C10.7003 16.2607 10.9688 16.3374 11.2543 16.4013L12.4304 16.6825C13.0014 16.8104 13.5256 16.9808 14.0028 17.1939C14.4801 17.407 14.8935 17.669 15.2429 17.9801C15.5923 18.2912 15.8629 18.6577 16.0547 19.0795C16.2507 19.5014 16.3509 19.9851 16.3551 20.5305C16.3509 21.3317 16.1463 22.0263 15.7415 22.6143C15.3409 23.1982 14.7614 23.652 14.0028 23.9759C13.2486 24.2955 12.3388 24.4553 11.2734 24.4553C10.2166 24.4553 9.29616 24.2933 8.51207 23.9695C7.73224 23.6456 7.12287 23.1662 6.68395 22.5313C6.24929 21.892 6.02131 21.1016 6 20.1598H8.67827C8.7081 20.5987 8.83381 20.9652 9.0554 21.2592C9.28125 21.549 9.58168 21.7685 9.95668 21.9176C10.3359 22.0625 10.7642 22.1349 11.2415 22.1349C11.7102 22.1349 12.1172 22.0668 12.4624 21.9304C12.8118 21.794 13.0824 21.6044 13.2741 21.3615C13.4659 21.1186 13.5618 20.8395 13.5618 20.5241C13.5618 20.2301 13.4744 19.983 13.2997 19.7827C13.1293 19.5824 12.8778 19.4119 12.5455 19.2713C12.2173 19.1307 11.8146 19.0028 11.3374 18.8878L9.91193 18.5298C8.80824 18.2614 7.93679 17.8416 7.29759 17.2706C6.65838 16.6996 6.34091 15.9304 6.34517 14.9631C6.34091 14.1705 6.55185 13.478 6.97798 12.8857C7.40838 12.2933 7.99858 11.831 8.74858 11.4986C9.49858 11.1662 10.3509 11 11.3054 11C12.277 11 13.125 11.1662 13.8494 11.4986C14.5781 11.831 15.1449 12.2933 15.5497 12.8857C15.9545 13.478 16.1634 14.1641 16.1761 14.9439H13.5234Z" fill="#FAFAFA"/>
</svg>
