<svg width="34" height="34" viewBox="0 0 34 34" fill="none" xmlns="http://www.w3.org/2000/svg">
<circle cx="16.9573" cy="16.9573" r="16.9573" fill="#EA8D32"/>
<path d="M18.5215 24.0909V11H23.6863C24.6749 11 25.5186 11.1768 26.2175 11.5305C26.9206 11.88 27.4554 12.3764 27.8219 13.0199C28.1926 13.6591 28.378 14.4112 28.378 15.2763C28.378 16.1456 28.1905 16.8935 27.8155 17.5199C27.4405 18.142 26.8972 18.6193 26.1855 18.9517C25.4782 19.2841 24.6216 19.4503 23.6159 19.4503H20.1578V17.2259H23.1685C23.6969 17.2259 24.1358 17.1534 24.4853 17.0085C24.8347 16.8636 25.0946 16.6463 25.2651 16.3565C25.4398 16.0668 25.5272 15.7067 25.5272 15.2763C25.5272 14.8416 25.4398 14.4751 25.2651 14.1768C25.0946 13.8786 24.8326 13.6527 24.4789 13.4993C24.1294 13.3416 23.6884 13.2628 23.1557 13.2628H21.2892V24.0909H18.5215ZM25.5911 18.1335L28.8446 24.0909H25.7892L22.606 18.1335H25.5911Z" fill="#FAFAFA"/>
<path d="M6 13.282V11H16.7514V13.282H12.7436V24.0909H10.0078V13.282H6Z" fill="#FAFAFA"/>
</svg>
