<svg width="30" height="27" viewBox="0 0 30 27" fill="none" xmlns="http://www.w3.org/2000/svg">
<g filter="url(#filter0_d_520_2063)">
<mask id="mask0_520_2063" style="mask-type:alpha" maskUnits="userSpaceOnUse" x="3" y="0" width="24" height="24">
<rect x="3.5" y="0.5" width="23" height="23" fill="#D9D9D9" stroke="#303030"/>
</mask>
<g mask="url(#mask0_520_2063)">
<path d="M23.8112 11.5055L23.8185 11.5091L23.8112 11.4945C22.9769 9.80908 21.7711 8.46983 20.1942 7.47692C18.6171 6.48398 16.8857 5.9875 15 5.9875C13.1143 5.9875 11.3829 6.48398 9.80584 7.47692C8.22887 8.46983 7.02314 9.80908 6.1888 11.4945L6.18152 11.4909L6.1888 11.5055C7.02314 13.1909 8.22887 14.5302 9.80584 15.5231C11.3829 16.516 13.1143 17.0125 15 17.0125C16.8857 17.0125 18.6171 16.516 20.1942 15.5231C21.7711 14.5302 22.9769 13.1909 23.8112 11.5055ZM18.1787 14.6787C17.306 15.5513 16.2467 15.9875 15 15.9875C13.7533 15.9875 12.694 15.5513 11.8213 14.6787C10.9487 13.806 10.5125 12.7467 10.5125 11.5C10.5125 10.2533 10.9487 9.19397 11.8213 8.32134C12.694 7.44871 13.7533 7.0125 15 7.0125C16.2467 7.0125 17.306 7.44871 18.1787 8.32134C19.0513 9.19397 19.4875 10.2533 19.4875 11.5C19.4875 12.7467 19.0513 13.806 18.1787 14.6787ZM13.0787 13.4213C13.606 13.9487 14.2467 14.2125 15 14.2125C15.7533 14.2125 16.394 13.9487 16.9213 13.4213C17.4487 12.894 17.7125 12.2533 17.7125 11.5C17.7125 10.7467 17.4487 10.106 16.9213 9.57866C16.394 9.05129 15.7533 8.7875 15 8.7875C14.2467 8.7875 13.606 9.05129 13.0787 9.57866C12.5513 10.106 12.2875 10.7467 12.2875 11.5C12.2875 12.2533 12.5513 12.894 13.0787 13.4213ZM15 18.9875C12.5692 18.9875 10.3549 18.3091 8.35702 16.9522C6.36047 15.5962 4.91266 13.7789 4.01344 11.5C4.91266 9.22111 6.36047 7.40383 8.35702 6.04784C10.3549 4.69092 12.5692 4.0125 15 4.0125C17.4308 4.0125 19.6451 4.69092 21.643 6.04784C23.6395 7.40383 25.0873 9.22111 25.9866 11.5C25.0873 13.7789 23.6395 15.5962 21.643 16.9522C19.6451 18.3091 17.4308 18.9875 15 18.9875Z" fill="#1C1B1F" stroke="#303030" stroke-width="0.025"/>
</g>
</g>
<defs>
<filter id="filter0_d_520_2063" x="0" y="4" width="30" height="23" filterUnits="userSpaceOnUse" color-interpolation-filters="sRGB">
<feFlood flood-opacity="0" result="BackgroundImageFix"/>
<feColorMatrix in="SourceAlpha" type="matrix" values="0 0 0 0 0 0 0 0 0 0 0 0 0 0 0 0 0 0 127 0" result="hardAlpha"/>
<feOffset dy="4"/>
<feGaussianBlur stdDeviation="2"/>
<feComposite in2="hardAlpha" operator="out"/>
<feColorMatrix type="matrix" values="0 0 0 0 0 0 0 0 0 0 0 0 0 0 0 0 0 0 0.25 0"/>
<feBlend mode="normal" in2="BackgroundImageFix" result="effect1_dropShadow_520_2063"/>
<feBlend mode="normal" in="SourceGraphic" in2="effect1_dropShadow_520_2063" result="shape"/>
</filter>
</defs>
</svg>
