<svg width="311" height="154" viewBox="0 0 311 154" fill="none" xmlns="http://www.w3.org/2000/svg">
<g filter="url(#filter0_i_687_2597)">
<mask id="mask0_687_2597" style="mask-type:alpha" maskUnits="userSpaceOnUse" x="99" y="0" width="129" height="128">
<rect x="99.7515" width="127.851" height="127.851" fill="#D9D9D9"/>
</mask>
<g mask="url(#mask0_687_2597)">
<g filter="url(#filter1_b_687_2597)">
<path d="M110.345 111.87C107.584 111.87 105.345 109.631 105.345 106.87V96.9537C105.345 94.0238 106.1 91.2714 107.609 88.6966C109.118 86.1219 111.205 84.1686 113.868 82.8368C118.397 80.5284 123.502 78.5751 129.184 76.977C134.866 75.3788 141.126 74.5798 147.962 74.5798C154.799 74.5798 161.058 75.3788 166.74 76.977C172.422 78.5751 177.528 80.5284 182.056 82.8368C184.719 84.1686 186.806 86.1219 188.315 88.6966C189.824 91.2714 190.579 94.0238 190.579 96.9537V106.87C190.579 109.631 188.34 111.87 185.579 111.87H110.345ZM115.999 101.215H179.925V96.9537C179.925 95.977 179.681 95.0892 179.192 94.2901C178.704 93.4911 178.06 92.8696 177.261 92.4256C174.065 90.8275 169.959 89.2293 164.942 87.6312C159.926 86.0331 154.266 85.234 147.962 85.234C141.658 85.234 135.998 86.0331 130.982 87.6312C125.965 89.2293 121.859 90.8275 118.663 92.4256C117.864 92.8696 117.22 93.4911 116.732 94.2901C116.243 95.0892 115.999 95.977 115.999 96.9537V101.215ZM147.962 69.2527C142.102 69.2527 137.086 67.1662 132.913 62.9933C128.74 58.8204 126.654 53.804 126.654 47.9442H125.322C124.523 47.9442 123.879 47.7 123.391 47.2117C122.902 46.7234 122.658 46.0797 122.658 45.2806C122.658 44.4815 122.902 43.8379 123.391 43.3495C123.879 42.8612 124.523 42.617 125.322 42.617H126.654C126.654 38.6217 127.63 35.0259 129.583 31.8296C130.916 29.6495 132.537 27.7792 134.448 26.2186C135.643 25.2422 137.308 26.177 137.308 27.7206V29.2992C137.308 30.0983 137.552 30.742 138.04 31.2303C138.529 31.7186 139.172 31.9628 139.971 31.9628C140.77 31.9628 141.414 31.7186 141.902 31.2303C142.391 30.742 142.635 30.0983 142.635 29.2992V23.5492C142.635 22.6883 143.184 21.9114 144.023 21.7219C144.395 21.6379 144.776 21.5667 145.165 21.5083C146.053 21.3752 146.985 21.3086 147.962 21.3086C148.939 21.3086 149.871 21.3752 150.759 21.5083C151.148 21.5667 151.529 21.6379 151.901 21.7219C152.741 21.9114 153.289 22.6883 153.289 23.5492V29.2992C153.289 30.0983 153.533 30.742 154.022 31.2303C154.51 31.7186 155.154 31.9628 155.953 31.9628C156.752 31.9628 157.396 31.7186 157.884 31.2303C158.372 30.742 158.616 30.0983 158.616 29.2992V27.7206C158.616 26.177 160.281 25.2422 161.476 26.2186C163.387 27.7792 165.008 29.6495 166.341 31.8296C168.294 35.0259 169.271 38.6217 169.271 42.617H170.602C171.401 42.617 172.045 42.8612 172.533 43.3495C173.022 43.8379 173.266 44.4815 173.266 45.2806C173.266 46.0797 173.022 46.7234 172.533 47.2117C172.045 47.7 171.401 47.9442 170.602 47.9442H169.271C169.271 53.804 167.184 58.8204 163.011 62.9933C158.838 67.1662 153.822 69.2527 147.962 69.2527ZM147.962 58.5984C150.892 58.5984 153.4 57.5552 155.487 55.4687C157.573 53.3823 158.616 50.8741 158.616 47.9442H137.308C137.308 50.8741 138.351 53.3823 140.438 55.4687C142.524 57.5552 145.032 58.5984 147.962 58.5984ZM189.555 79.9069C188.602 79.9069 187.781 79.234 187.594 78.2991L187.116 75.9116C186.584 75.734 186.073 75.5342 185.585 75.3122C185.097 75.0903 184.63 74.7573 184.186 74.3134L182.055 75.0747C181.133 75.4038 180.109 75.0179 179.634 74.1625L178.563 72.236C178.113 71.4245 178.28 70.4093 178.966 69.7848L180.724 68.1872V64.991L178.966 63.3933C178.28 62.7688 178.113 61.7537 178.564 60.9422L179.634 59.0156C180.109 58.1603 181.133 57.7743 182.055 58.1034L184.186 58.8648C184.542 58.5096 184.986 58.1989 185.518 57.9325C186.051 57.6662 186.584 57.4442 187.116 57.2666L187.594 54.8791C187.781 53.9442 188.602 53.2713 189.555 53.2713H191.603C192.556 53.2713 193.377 53.9442 193.564 54.8791L194.042 57.2666C194.574 57.4442 195.107 57.6662 195.64 57.9325C196.173 58.1989 196.616 58.5096 196.972 58.8648L199.103 58.1034C200.025 57.7743 201.049 58.1603 201.524 59.0156L202.595 60.9422C203.045 61.7537 202.879 62.7688 202.192 63.3933L200.434 64.991V68.1872L202.192 69.7848C202.879 70.4093 203.045 71.4245 202.595 72.236L201.524 74.1625C201.049 75.0179 200.025 75.4038 199.103 75.0747L196.972 74.3134C196.528 74.7573 196.062 75.0903 195.573 75.3122C195.085 75.5342 194.574 75.734 194.042 75.9116L193.564 78.2991C193.377 79.234 192.556 79.9069 191.603 79.9069H189.555ZM190.579 70.5844C191.644 70.5844 192.577 70.1849 193.376 69.3858C194.175 68.5868 194.574 67.6545 194.574 66.5891C194.574 65.5237 194.175 64.5914 193.376 63.7924C192.577 62.9933 191.644 62.5938 190.579 62.5938C189.514 62.5938 188.581 62.9933 187.782 63.7924C186.983 64.5914 186.584 65.5237 186.584 66.5891C186.584 67.6545 186.983 68.5868 187.782 69.3858C188.581 70.1849 189.514 70.5844 190.579 70.5844ZM201.823 53.2713C200.863 53.2713 200.038 52.5888 199.858 51.6455L199.102 47.6778C198.303 47.4115 197.571 47.0785 196.905 46.679C196.239 46.2794 195.64 45.8133 195.107 45.2806L191.055 46.6313C190.157 46.9307 189.172 46.5594 188.695 45.7417L186.613 42.1724C186.132 41.3473 186.301 40.297 187.017 39.665L190.313 36.7572C190.135 36.3133 190.046 35.9581 190.046 35.6918V33.5609C190.046 33.2946 190.135 32.9394 190.313 32.4955L187.017 29.5877C186.301 28.9557 186.132 27.9054 186.613 27.0803L188.695 23.511C189.172 22.6933 190.157 22.3221 191.055 22.6214L195.107 23.9721C195.64 23.4394 196.239 22.9733 196.905 22.5738C197.571 22.1742 198.303 21.8413 199.102 21.5749L199.858 17.6072C200.038 16.6639 200.863 15.9814 201.823 15.9814H205.971C206.931 15.9814 207.756 16.6639 207.935 17.6072L208.691 21.5749C209.49 21.8413 210.223 22.1742 210.889 22.5738C211.555 22.9733 212.154 23.4394 212.687 23.9721L216.739 22.6214C217.637 22.3221 218.622 22.6933 219.099 23.511L221.181 27.0803C221.662 27.9054 221.493 28.9557 220.776 29.5877L217.481 32.4955C217.659 32.9394 217.747 33.2946 217.747 33.5609V35.6918C217.747 35.9581 217.659 36.3133 217.481 36.7572L220.776 39.665C221.493 40.297 221.662 41.3473 221.181 42.1724L219.099 45.7417C218.622 46.5594 217.637 46.9307 216.739 46.6313L212.687 45.2806C212.154 45.8133 211.555 46.2794 210.889 46.679C210.223 47.0785 209.49 47.4115 208.691 47.6778L207.935 51.6455C207.756 52.5888 206.931 53.2713 205.971 53.2713H201.823ZM203.897 41.2853C205.761 41.2853 207.337 40.6416 208.625 39.3542C209.912 38.0668 210.556 36.4909 210.556 34.6264C210.556 32.7619 209.912 31.1859 208.625 29.8985C207.337 28.6112 205.761 27.9675 203.897 27.9675C202.032 27.9675 200.456 28.6112 199.169 29.8985C197.882 31.1859 197.238 32.7619 197.238 34.6264C197.238 36.4909 197.882 38.0668 199.169 39.3542C200.456 40.6416 202.032 41.2853 203.897 41.2853Z" fill="#79280F"/>
</g>
</g>
</g>
<g filter="url(#filter2_b_687_2597)">
<path d="M1.44212 149.726V136.635H9.6495V138.335H3.41726V142.324H9.22124V144.017H3.41726V148.025H9.72621V149.726H1.44212ZM19.4917 142.304L17.7594 142.611C17.687 142.39 17.5719 142.179 17.4142 141.978C17.2608 141.778 17.052 141.614 16.7878 141.486C16.5236 141.358 16.1934 141.294 15.7971 141.294C15.2559 141.294 14.8042 141.416 14.4419 141.659C14.0797 141.897 13.8986 142.206 13.8986 142.586C13.8986 142.914 14.0201 143.178 14.263 143.378C14.5059 143.579 14.8979 143.743 15.4391 143.87L16.9988 144.228C17.9022 144.437 18.5755 144.759 19.0186 145.194C19.4618 145.628 19.6834 146.193 19.6834 146.888C19.6834 147.476 19.513 148 19.1721 148.46C18.8354 148.916 18.3645 149.274 17.7594 149.534C17.1586 149.794 16.4618 149.924 15.6692 149.924C14.5698 149.924 13.6728 149.689 12.9782 149.221C12.2836 148.748 11.8574 148.076 11.6998 147.207L13.5471 146.926C13.6621 147.407 13.8986 147.772 14.2566 148.019C14.6145 148.262 15.0811 148.383 15.6564 148.383C16.2828 148.383 16.7836 148.253 17.1586 147.993C17.5336 147.729 17.7211 147.407 17.7211 147.028C17.7211 146.721 17.606 146.464 17.3759 146.255C17.15 146.046 16.8027 145.888 16.334 145.782L14.6721 145.417C13.7559 145.209 13.0783 144.876 12.6394 144.42C12.2047 143.964 11.9874 143.387 11.9874 142.688C11.9874 142.108 12.1493 141.601 12.4732 141.167C12.7971 140.732 13.2445 140.393 13.8155 140.15C14.3865 139.903 15.0407 139.78 15.7779 139.78C16.839 139.78 17.6742 140.01 18.2836 140.47C18.8929 140.926 19.2956 141.537 19.4917 142.304ZM26.3679 139.907V141.441H21.005V139.907H26.3679ZM22.4432 137.555H24.3544V146.843C24.3544 147.214 24.4098 147.493 24.5206 147.68C24.6314 147.863 24.7741 147.989 24.9489 148.057C25.1278 148.121 25.3217 148.153 25.5305 148.153C25.6839 148.153 25.8182 148.142 25.9332 148.121C26.0483 148.1 26.1378 148.083 26.2017 148.07L26.5469 149.649C26.4361 149.691 26.2784 149.734 26.0739 149.777C25.8693 149.824 25.6136 149.849 25.3068 149.853C24.804 149.862 24.3352 149.772 23.9006 149.585C23.4659 149.397 23.1143 149.108 22.8459 148.716C22.5774 148.324 22.4432 147.831 22.4432 147.239V137.555ZM31.3393 149.943C30.7172 149.943 30.1547 149.828 29.6518 149.598C29.149 149.363 28.7505 149.025 28.4565 148.581C28.1667 148.138 28.0218 147.595 28.0218 146.951C28.0218 146.397 28.1284 145.941 28.3414 145.584C28.5545 145.226 28.8422 144.942 29.2044 144.733C29.5666 144.525 29.9714 144.367 30.4189 144.26C30.8663 144.154 31.3223 144.073 31.7868 144.017C32.3748 143.949 32.8521 143.894 33.2186 143.851C33.5851 143.804 33.8514 143.73 34.0176 143.628C34.1838 143.525 34.2669 143.359 34.2669 143.129V143.084C34.2669 142.526 34.1092 142.093 33.7939 141.787C33.4828 141.48 33.0183 141.326 32.4004 141.326C31.7569 141.326 31.2498 141.469 30.8791 141.755C30.5126 142.036 30.2591 142.349 30.1184 142.694L28.3223 142.285C28.5353 141.689 28.8464 141.207 29.2555 140.841C29.6689 140.47 30.144 140.201 30.6809 140.035C31.2179 139.865 31.7825 139.78 32.3748 139.78C32.7669 139.78 33.1824 139.826 33.6213 139.92C34.0645 140.01 34.4778 140.176 34.8613 140.419C35.2491 140.662 35.5666 141.009 35.8137 141.461C36.0609 141.908 36.1845 142.49 36.1845 143.206V149.726H34.318V148.383H34.2413C34.1177 148.63 33.9324 148.873 33.6852 149.112C33.438 149.351 33.1206 149.549 32.7328 149.706C32.345 149.864 31.8805 149.943 31.3393 149.943ZM31.7548 148.409C32.2832 148.409 32.7349 148.304 33.1099 148.096C33.4892 147.887 33.7768 147.614 33.9728 147.277C34.1731 146.937 34.2733 146.572 34.2733 146.184V144.919C34.2051 144.987 34.073 145.051 33.877 145.111C33.6852 145.166 33.4657 145.215 33.2186 145.258C32.9714 145.296 32.7306 145.332 32.4963 145.366C32.2619 145.396 32.0659 145.422 31.9082 145.443C31.5375 145.49 31.1987 145.569 30.8919 145.679C30.5893 145.79 30.3464 145.95 30.1632 146.159C29.9842 146.363 29.8947 146.636 29.8947 146.977C29.8947 147.45 30.0694 147.808 30.4189 148.051C30.7683 148.29 31.2136 148.409 31.7548 148.409ZM38.7301 149.726V139.907H40.5646V141.505H40.6861C40.8906 140.964 41.2251 140.542 41.6896 140.24C42.1541 139.933 42.7102 139.78 43.358 139.78C44.0142 139.78 44.5639 139.933 45.0071 140.24C45.4545 140.547 45.7848 140.968 45.9979 141.505H46.1001C46.3345 140.981 46.7074 140.564 47.2188 140.253C47.7301 139.937 48.3395 139.78 49.0469 139.78C49.9375 139.78 50.6641 140.059 51.2266 140.617C51.7933 141.175 52.0767 142.017 52.0767 143.142V149.726H50.1655V143.321C50.1655 142.656 49.9844 142.174 49.6222 141.876C49.2599 141.578 48.8274 141.429 48.3246 141.429C47.7024 141.429 47.2188 141.62 46.8736 142.004C46.5284 142.383 46.3558 142.871 46.3558 143.468V149.726H44.451V143.199C44.451 142.667 44.2848 142.238 43.9524 141.915C43.62 141.591 43.1875 141.429 42.6548 141.429C42.2926 141.429 41.9581 141.525 41.6513 141.716C41.3487 141.904 41.1037 142.166 40.9162 142.503C40.733 142.839 40.6413 143.229 40.6413 143.672V149.726H38.7301ZM58.774 149.924C57.8535 149.924 57.0502 149.713 56.3642 149.291C55.6781 148.869 55.1454 148.279 54.7662 147.52C54.3869 146.762 54.1973 145.875 54.1973 144.861C54.1973 143.843 54.3869 142.952 54.7662 142.189C55.1454 141.427 55.6781 140.834 56.3642 140.412C57.0502 139.991 57.8535 139.78 58.774 139.78C59.6944 139.78 60.4977 139.991 61.1838 140.412C61.8699 140.834 62.4025 141.427 62.7818 142.189C63.161 142.952 63.3507 143.843 63.3507 144.861C63.3507 145.875 63.161 146.762 62.7818 147.52C62.4025 148.279 61.8699 148.869 61.1838 149.291C60.4977 149.713 59.6944 149.924 58.774 149.924ZM58.7804 148.319C59.377 148.319 59.8713 148.162 60.2633 147.846C60.6554 147.531 60.9451 147.111 61.1326 146.587C61.3244 146.063 61.4203 145.486 61.4203 144.855C61.4203 144.228 61.3244 143.653 61.1326 143.129C60.9451 142.601 60.6554 142.177 60.2633 141.857C59.8713 141.537 59.377 141.378 58.7804 141.378C58.1795 141.378 57.6809 141.537 57.2846 141.857C56.8926 142.177 56.6007 142.601 56.4089 143.129C56.2214 143.653 56.1277 144.228 56.1277 144.855C56.1277 145.486 56.2214 146.063 56.4089 146.587C56.6007 147.111 56.8926 147.531 57.2846 147.846C57.6809 148.162 58.1795 148.319 58.7804 148.319ZM72.8413 142.304L71.109 142.611C71.0366 142.39 70.9215 142.179 70.7638 141.978C70.6104 141.778 70.4016 141.614 70.1374 141.486C69.8732 141.358 69.543 141.294 69.1467 141.294C68.6055 141.294 68.1538 141.416 67.7915 141.659C67.4293 141.897 67.2482 142.206 67.2482 142.586C67.2482 142.914 67.3697 143.178 67.6126 143.378C67.8555 143.579 68.2475 143.743 68.7887 143.87L70.3484 144.228C71.2518 144.437 71.9251 144.759 72.3683 145.194C72.8114 145.628 73.033 146.193 73.033 146.888C73.033 147.476 72.8626 148 72.5217 148.46C72.185 148.916 71.7141 149.274 71.109 149.534C70.5082 149.794 69.8114 149.924 69.0188 149.924C67.9194 149.924 67.0224 149.689 66.3278 149.221C65.6332 148.748 65.207 148.076 65.0494 147.207L66.8967 146.926C67.0117 147.407 67.2482 147.772 67.6062 148.019C67.9641 148.262 68.4308 148.383 69.006 148.383C69.6325 148.383 70.1332 148.253 70.5082 147.993C70.8832 147.729 71.0707 147.407 71.0707 147.028C71.0707 146.721 70.9556 146.464 70.7255 146.255C70.4996 146.046 70.1523 145.888 69.6836 145.782L68.0217 145.417C67.1055 145.209 66.4279 144.876 65.989 144.42C65.5543 143.964 65.337 143.387 65.337 142.688C65.337 142.108 65.4989 141.601 65.8228 141.167C66.1467 140.732 66.5941 140.393 67.1651 140.15C67.7362 139.903 68.3903 139.78 69.1275 139.78C70.1886 139.78 71.0238 140.01 71.6332 140.47C72.2425 140.926 72.6452 141.537 72.8413 142.304ZM84.4812 139.907V141.441H79.1183V139.907H84.4812ZM80.5565 137.555H82.4677V146.843C82.4677 147.214 82.5231 147.493 82.6339 147.68C82.7447 147.863 82.8874 147.989 83.0621 148.057C83.2411 148.121 83.435 148.153 83.6438 148.153C83.7972 148.153 83.9315 148.142 84.0465 148.121C84.1616 148.1 84.2511 148.083 84.315 148.07L84.6602 149.649C84.5494 149.691 84.3917 149.734 84.1871 149.777C83.9826 149.824 83.7269 149.849 83.4201 149.853C82.9173 149.862 82.4485 149.772 82.0138 149.585C81.5792 149.397 81.2276 149.108 80.9592 148.716C80.6907 148.324 80.5565 147.831 80.5565 147.239V137.555ZM86.5953 149.726V139.907H88.4426V141.467H88.5449C88.7239 140.939 89.0392 140.523 89.4909 140.221C89.9469 139.914 90.4625 139.76 91.0378 139.76C91.1571 139.76 91.2978 139.765 91.4597 139.773C91.6259 139.782 91.7559 139.792 91.8496 139.805V141.633C91.7729 141.612 91.6365 141.589 91.4405 141.563C91.2445 141.533 91.0485 141.518 90.8525 141.518C90.4007 141.518 89.998 141.614 89.6444 141.806C89.2949 141.993 89.0179 142.255 88.8134 142.592C88.6088 142.924 88.5066 143.304 88.5066 143.73V149.726H86.5953ZM96.2729 149.943C95.6507 149.943 95.0882 149.828 94.5854 149.598C94.0826 149.363 93.6841 149.025 93.3901 148.581C93.1003 148.138 92.9554 147.595 92.9554 146.951C92.9554 146.397 93.062 145.941 93.275 145.584C93.4881 145.226 93.7757 144.942 94.138 144.733C94.5002 144.525 94.905 144.367 95.3525 144.26C95.7999 144.154 96.2559 144.073 96.7203 144.017C97.3084 143.949 97.7857 143.894 98.1522 143.851C98.5186 143.804 98.785 143.73 98.9512 143.628C99.1174 143.525 99.2005 143.359 99.2005 143.129V143.084C99.2005 142.526 99.0428 142.093 98.7275 141.787C98.4164 141.48 97.9519 141.326 97.334 141.326C96.6905 141.326 96.1834 141.469 95.8127 141.755C95.4462 142.036 95.1926 142.349 95.052 142.694L93.2559 142.285C93.4689 141.689 93.78 141.207 94.1891 140.841C94.6025 140.47 95.0776 140.201 95.6145 140.035C96.1515 139.865 96.7161 139.78 97.3084 139.78C97.7005 139.78 98.1159 139.826 98.5549 139.92C98.998 140.01 99.4114 140.176 99.7949 140.419C100.183 140.662 100.5 141.009 100.747 141.461C100.994 141.908 101.118 142.49 101.118 143.206V149.726H99.2516V148.383H99.1749C99.0513 148.63 98.8659 148.873 98.6188 149.112C98.3716 149.351 98.0542 149.549 97.6664 149.706C97.2786 149.864 96.8141 149.943 96.2729 149.943ZM96.6884 148.409C97.2168 148.409 97.6685 148.304 98.0435 148.096C98.4228 147.887 98.7104 147.614 98.9064 147.277C99.1067 146.937 99.2069 146.572 99.2069 146.184V144.919C99.1387 144.987 99.0066 145.051 98.8105 145.111C98.6188 145.166 98.3993 145.215 98.1522 145.258C97.905 145.296 97.6642 145.332 97.4299 145.366C97.1955 145.396 96.9995 145.422 96.8418 145.443C96.4711 145.49 96.1323 145.569 95.8255 145.679C95.5229 145.79 95.28 145.95 95.0968 146.159C94.9178 146.363 94.8283 146.636 94.8283 146.977C94.8283 147.45 95.003 147.808 95.3525 148.051C95.7019 148.29 96.1472 148.409 96.6884 148.409ZM103.817 149.726V136.635H105.728V141.499H105.843C105.954 141.294 106.114 141.058 106.323 140.79C106.532 140.521 106.821 140.287 107.192 140.086C107.563 139.882 108.053 139.78 108.662 139.78C109.455 139.78 110.162 139.98 110.784 140.38C111.407 140.781 111.895 141.358 112.248 142.113C112.606 142.867 112.785 143.775 112.785 144.836C112.785 145.897 112.608 146.807 112.255 147.565C111.901 148.319 111.415 148.901 110.797 149.31C110.179 149.715 109.474 149.917 108.681 149.917C108.085 149.917 107.597 149.817 107.218 149.617C106.843 149.417 106.549 149.182 106.336 148.914C106.123 148.645 105.958 148.407 105.843 148.198H105.684V149.726H103.817ZM105.69 144.816C105.69 145.507 105.79 146.112 105.99 146.632C106.191 147.152 106.48 147.559 106.86 147.853C107.239 148.142 107.703 148.287 108.253 148.287C108.824 148.287 109.301 148.136 109.685 147.834C110.069 147.527 110.358 147.111 110.554 146.587C110.755 146.063 110.855 145.473 110.855 144.816C110.855 144.169 110.757 143.587 110.561 143.071C110.369 142.556 110.079 142.149 109.691 141.851C109.308 141.552 108.828 141.403 108.253 141.403C107.699 141.403 107.23 141.546 106.847 141.831C106.468 142.117 106.18 142.515 105.984 143.027C105.788 143.538 105.69 144.135 105.69 144.816ZM117.789 149.943C117.166 149.943 116.604 149.828 116.101 149.598C115.598 149.363 115.2 149.025 114.906 148.581C114.616 148.138 114.471 147.595 114.471 146.951C114.471 146.397 114.578 145.941 114.791 145.584C115.004 145.226 115.291 144.942 115.654 144.733C116.016 144.525 116.421 144.367 116.868 144.26C117.316 144.154 117.771 144.073 118.236 144.017C118.824 143.949 119.301 143.894 119.668 143.851C120.034 143.804 120.301 143.73 120.467 143.628C120.633 143.525 120.716 143.359 120.716 143.129V143.084C120.716 142.526 120.558 142.093 120.243 141.787C119.932 141.48 119.468 141.326 118.85 141.326C118.206 141.326 117.699 141.469 117.328 141.755C116.962 142.036 116.708 142.349 116.568 142.694L114.771 142.285C114.985 141.689 115.296 141.207 115.705 140.841C116.118 140.47 116.593 140.201 117.13 140.035C117.667 139.865 118.232 139.78 118.824 139.78C119.216 139.78 119.632 139.826 120.07 139.92C120.514 140.01 120.927 140.176 121.311 140.419C121.698 140.662 122.016 141.009 122.263 141.461C122.51 141.908 122.634 142.49 122.634 143.206V149.726H120.767V148.383H120.691C120.567 148.63 120.382 148.873 120.134 149.112C119.887 149.351 119.57 149.549 119.182 149.706C118.794 149.864 118.33 149.943 117.789 149.943ZM118.204 148.409C118.732 148.409 119.184 148.304 119.559 148.096C119.938 147.887 120.226 147.614 120.422 147.277C120.622 146.937 120.722 146.572 120.722 146.184V144.919C120.654 144.987 120.522 145.051 120.326 145.111C120.134 145.166 119.915 145.215 119.668 145.258C119.421 145.296 119.18 145.332 118.945 145.366C118.711 145.396 118.515 145.422 118.357 145.443C117.987 145.49 117.648 145.569 117.341 145.679C117.039 145.79 116.796 145.95 116.612 146.159C116.433 146.363 116.344 146.636 116.344 146.977C116.344 147.45 116.519 147.808 116.868 148.051C117.218 148.29 117.663 148.409 118.204 148.409ZM125.179 139.907H127.091V150.365C127.091 151.021 126.971 151.575 126.733 152.027C126.498 152.478 126.149 152.821 125.684 153.056C125.224 153.29 124.655 153.407 123.978 153.407C123.909 153.407 123.846 153.407 123.786 153.407C123.722 153.407 123.656 153.405 123.588 153.401V151.758C123.647 151.758 123.701 151.758 123.748 151.758C123.79 151.758 123.839 151.758 123.895 151.758C124.346 151.758 124.672 151.637 124.873 151.394C125.077 151.155 125.179 150.808 125.179 150.352V139.907ZM126.125 138.392C125.793 138.392 125.507 138.282 125.269 138.06C125.034 137.834 124.917 137.566 124.917 137.255C124.917 136.939 125.034 136.671 125.269 136.449C125.507 136.223 125.793 136.111 126.125 136.111C126.458 136.111 126.741 136.223 126.975 136.449C127.214 136.671 127.333 136.939 127.333 137.255C127.333 137.566 127.214 137.834 126.975 138.06C126.741 138.282 126.458 138.392 126.125 138.392ZM132.519 149.943C131.897 149.943 131.334 149.828 130.831 149.598C130.329 149.363 129.93 149.025 129.636 148.581C129.346 148.138 129.202 147.595 129.202 146.951C129.202 146.397 129.308 145.941 129.521 145.584C129.734 145.226 130.022 144.942 130.384 144.733C130.746 144.525 131.151 144.367 131.599 144.26C132.046 144.154 132.502 144.073 132.966 144.017C133.555 143.949 134.032 143.894 134.398 143.851C134.765 143.804 135.031 143.73 135.197 143.628C135.363 143.525 135.447 143.359 135.447 143.129V143.084C135.447 142.526 135.289 142.093 134.974 141.787C134.662 141.48 134.198 141.326 133.58 141.326C132.937 141.326 132.43 141.469 132.059 141.755C131.692 142.036 131.439 142.349 131.298 142.694L129.502 142.285C129.715 141.689 130.026 141.207 130.435 140.841C130.849 140.47 131.324 140.201 131.861 140.035C132.398 139.865 132.962 139.78 133.555 139.78C133.947 139.78 134.362 139.826 134.801 139.92C135.244 140.01 135.657 140.176 136.041 140.419C136.429 140.662 136.746 141.009 136.993 141.461C137.241 141.908 137.364 142.49 137.364 143.206V149.726H135.498V148.383H135.421C135.297 148.63 135.112 148.873 134.865 149.112C134.618 149.351 134.3 149.549 133.912 149.706C133.525 149.864 133.06 149.943 132.519 149.943ZM132.934 148.409C133.463 148.409 133.915 148.304 134.29 148.096C134.669 147.887 134.956 147.614 135.153 147.277C135.353 146.937 135.453 146.572 135.453 146.184V144.919C135.385 144.987 135.253 145.051 135.057 145.111C134.865 145.166 134.645 145.215 134.398 145.258C134.151 145.296 133.91 145.332 133.676 145.366C133.442 145.396 133.246 145.422 133.088 145.443C132.717 145.49 132.378 145.569 132.072 145.679C131.769 145.79 131.526 145.95 131.343 146.159C131.164 146.363 131.074 146.636 131.074 146.977C131.074 147.45 131.249 147.808 131.599 148.051C131.948 148.29 132.393 148.409 132.934 148.409ZM141.821 143.896V149.726H139.91V139.907H141.744V141.505H141.866C142.092 140.986 142.445 140.568 142.927 140.253C143.413 139.937 144.024 139.78 144.761 139.78C145.43 139.78 146.016 139.92 146.519 140.201C147.022 140.478 147.412 140.892 147.689 141.441C147.966 141.991 148.104 142.671 148.104 143.481V149.726H146.193V143.711C146.193 142.999 146.008 142.443 145.637 142.042C145.266 141.638 144.757 141.435 144.109 141.435C143.666 141.435 143.272 141.531 142.927 141.723C142.586 141.915 142.315 142.196 142.115 142.566C141.919 142.933 141.821 143.376 141.821 143.896ZM154.343 149.917C153.55 149.917 152.843 149.715 152.221 149.31C151.603 148.901 151.117 148.319 150.763 147.565C150.414 146.807 150.239 145.897 150.239 144.836C150.239 143.775 150.416 142.867 150.77 142.113C151.128 141.358 151.618 140.781 152.24 140.38C152.862 139.98 153.567 139.78 154.356 139.78C154.965 139.78 155.455 139.882 155.826 140.086C156.201 140.287 156.491 140.521 156.695 140.79C156.904 141.058 157.066 141.294 157.181 141.499H157.296V136.635H159.207V149.726H157.341V148.198H157.181C157.066 148.407 156.9 148.645 156.683 148.914C156.469 149.182 156.175 149.417 155.8 149.617C155.425 149.817 154.94 149.917 154.343 149.917ZM154.765 148.287C155.315 148.287 155.779 148.142 156.158 147.853C156.542 147.559 156.832 147.152 157.028 146.632C157.228 146.112 157.328 145.507 157.328 144.816C157.328 144.135 157.23 143.538 157.034 143.027C156.838 142.515 156.55 142.117 156.171 141.831C155.792 141.546 155.323 141.403 154.765 141.403C154.19 141.403 153.71 141.552 153.327 141.851C152.943 142.149 152.653 142.556 152.457 143.071C152.266 143.587 152.17 144.169 152.17 144.816C152.17 145.473 152.268 146.063 152.464 146.587C152.66 147.111 152.95 147.527 153.333 147.834C153.721 148.136 154.198 148.287 154.765 148.287ZM166.071 149.924C165.15 149.924 164.347 149.713 163.661 149.291C162.975 148.869 162.442 148.279 162.063 147.52C161.684 146.762 161.494 145.875 161.494 144.861C161.494 143.843 161.684 142.952 162.063 142.189C162.442 141.427 162.975 140.834 163.661 140.412C164.347 139.991 165.15 139.78 166.071 139.78C166.991 139.78 167.795 139.991 168.481 140.412C169.167 140.834 169.699 141.427 170.079 142.189C170.458 142.952 170.648 143.843 170.648 144.861C170.648 145.875 170.458 146.762 170.079 147.52C169.699 148.279 169.167 148.869 168.481 149.291C167.795 149.713 166.991 149.924 166.071 149.924ZM166.077 148.319C166.674 148.319 167.168 148.162 167.56 147.846C167.952 147.531 168.242 147.111 168.43 146.587C168.621 146.063 168.717 145.486 168.717 144.855C168.717 144.228 168.621 143.653 168.43 143.129C168.242 142.601 167.952 142.177 167.56 141.857C167.168 141.537 166.674 141.378 166.077 141.378C165.476 141.378 164.978 141.537 164.581 141.857C164.189 142.177 163.898 142.601 163.706 143.129C163.518 143.653 163.425 144.228 163.425 144.855C163.425 145.486 163.518 146.063 163.706 146.587C163.898 147.111 164.189 147.531 164.581 147.846C164.978 148.162 165.476 148.319 166.077 148.319ZM181.776 149.924C180.809 149.924 179.976 149.717 179.277 149.304C178.582 148.886 178.045 148.3 177.666 147.546C177.291 146.787 177.104 145.899 177.104 144.88C177.104 143.875 177.291 142.988 177.666 142.221C178.045 141.454 178.574 140.856 179.251 140.425C179.933 139.995 180.73 139.78 181.642 139.78C182.196 139.78 182.733 139.871 183.253 140.054C183.773 140.238 184.239 140.525 184.653 140.917C185.066 141.309 185.392 141.819 185.631 142.445C185.869 143.067 185.988 143.824 185.988 144.714V145.392H178.184V143.96H184.116C184.116 143.457 184.013 143.012 183.809 142.624C183.604 142.232 183.317 141.923 182.946 141.697C182.579 141.471 182.149 141.358 181.655 141.358C181.118 141.358 180.649 141.491 180.248 141.755C179.852 142.015 179.545 142.356 179.328 142.777C179.115 143.195 179.008 143.649 179.008 144.139V145.258C179.008 145.914 179.123 146.472 179.354 146.932C179.588 147.392 179.914 147.744 180.331 147.987C180.749 148.226 181.237 148.345 181.795 148.345C182.157 148.345 182.488 148.294 182.786 148.191C183.084 148.085 183.342 147.927 183.559 147.718C183.777 147.51 183.943 147.252 184.058 146.945L185.867 147.271C185.722 147.804 185.462 148.27 185.087 148.671C184.716 149.067 184.25 149.376 183.687 149.598C183.129 149.815 182.492 149.924 181.776 149.924ZM190.02 143.896V149.726H188.109V139.907H189.944V141.505H190.065C190.291 140.986 190.645 140.568 191.126 140.253C191.612 139.937 192.223 139.78 192.961 139.78C193.63 139.78 194.216 139.92 194.718 140.201C195.221 140.478 195.611 140.892 195.888 141.441C196.165 141.991 196.304 142.671 196.304 143.481V149.726H194.392V143.711C194.392 142.999 194.207 142.443 193.836 142.042C193.466 141.638 192.956 141.435 192.309 141.435C191.865 141.435 191.471 141.531 191.126 141.723C190.785 141.915 190.515 142.196 190.314 142.566C190.118 142.933 190.02 143.376 190.02 143.896ZM207.862 149.924C206.895 149.924 206.062 149.717 205.363 149.304C204.668 148.886 204.131 148.3 203.752 147.546C203.377 146.787 203.189 145.899 203.189 144.88C203.189 143.875 203.377 142.988 203.752 142.221C204.131 141.454 204.66 140.856 205.337 140.425C206.019 139.995 206.816 139.78 207.728 139.78C208.282 139.78 208.819 139.871 209.339 140.054C209.858 140.238 210.325 140.525 210.738 140.917C211.152 141.309 211.478 141.819 211.716 142.445C211.955 143.067 212.074 143.824 212.074 144.714V145.392H204.27V143.96H210.202C210.202 143.457 210.099 143.012 209.895 142.624C209.69 142.232 209.403 141.923 209.032 141.697C208.665 141.471 208.235 141.358 207.741 141.358C207.204 141.358 206.735 141.491 206.334 141.755C205.938 142.015 205.631 142.356 205.414 142.777C205.201 143.195 205.094 143.649 205.094 144.139V145.258C205.094 145.914 205.209 146.472 205.439 146.932C205.674 147.392 206 147.744 206.417 147.987C206.835 148.226 207.323 148.345 207.881 148.345C208.243 148.345 208.574 148.294 208.872 148.191C209.17 148.085 209.428 147.927 209.645 147.718C209.863 147.51 210.029 147.252 210.144 146.945L211.953 147.271C211.808 147.804 211.548 148.27 211.173 148.671C210.802 149.067 210.336 149.376 209.773 149.598C209.215 149.815 208.578 149.924 207.862 149.924ZM221.552 142.304L219.82 142.611C219.748 142.39 219.632 142.179 219.475 141.978C219.321 141.778 219.113 141.614 218.848 141.486C218.584 141.358 218.254 141.294 217.858 141.294C217.316 141.294 216.865 141.416 216.502 141.659C216.14 141.897 215.959 142.206 215.959 142.586C215.959 142.914 216.081 143.178 216.324 143.378C216.566 143.579 216.958 143.743 217.5 143.87L219.059 144.228C219.963 144.437 220.636 144.759 221.079 145.194C221.522 145.628 221.744 146.193 221.744 146.888C221.744 147.476 221.574 148 221.233 148.46C220.896 148.916 220.425 149.274 219.82 149.534C219.219 149.794 218.522 149.924 217.73 149.924C216.63 149.924 215.733 149.689 215.039 149.221C214.344 148.748 213.918 148.076 213.76 147.207L215.608 146.926C215.723 147.407 215.959 147.772 216.317 148.019C216.675 148.262 217.142 148.383 217.717 148.383C218.343 148.383 218.844 148.253 219.219 147.993C219.594 147.729 219.782 147.407 219.782 147.028C219.782 146.721 219.667 146.464 219.436 146.255C219.211 146.046 218.863 145.888 218.395 145.782L216.733 145.417C215.816 145.209 215.139 144.876 214.7 144.42C214.265 143.964 214.048 143.387 214.048 142.688C214.048 142.108 214.21 141.601 214.534 141.167C214.858 140.732 215.305 140.393 215.876 140.15C216.447 139.903 217.101 139.78 217.838 139.78C218.9 139.78 219.735 140.01 220.344 140.47C220.953 140.926 221.356 141.537 221.552 142.304ZM228.428 139.907V141.441H223.066V139.907H228.428ZM224.504 137.555H226.415V146.843C226.415 147.214 226.47 147.493 226.581 147.68C226.692 147.863 226.835 147.989 227.009 148.057C227.188 148.121 227.382 148.153 227.591 148.153C227.744 148.153 227.879 148.142 227.994 148.121C228.109 148.1 228.198 148.083 228.262 148.07L228.607 149.649C228.497 149.691 228.339 149.734 228.134 149.777C227.93 149.824 227.674 149.849 227.367 149.853C226.865 149.862 226.396 149.772 225.961 149.585C225.526 149.397 225.175 149.108 224.906 148.716C224.638 148.324 224.504 147.831 224.504 147.239V137.555ZM233.4 149.943C232.778 149.943 232.215 149.828 231.712 149.598C231.21 149.363 230.811 149.025 230.517 148.581C230.227 148.138 230.082 147.595 230.082 146.951C230.082 146.397 230.189 145.941 230.402 145.584C230.615 145.226 230.903 144.942 231.265 144.733C231.627 144.525 232.032 144.367 232.479 144.26C232.927 144.154 233.383 144.073 233.847 144.017C234.435 143.949 234.913 143.894 235.279 143.851C235.646 143.804 235.912 143.73 236.078 143.628C236.244 143.525 236.327 143.359 236.327 143.129V143.084C236.327 142.526 236.17 142.093 235.854 141.787C235.543 141.48 235.079 141.326 234.461 141.326C233.817 141.326 233.31 141.469 232.94 141.755C232.573 142.036 232.32 142.349 232.179 142.694L230.383 142.285C230.596 141.689 230.907 141.207 231.316 140.841C231.729 140.47 232.205 140.201 232.741 140.035C233.278 139.865 233.843 139.78 234.435 139.78C234.827 139.78 235.243 139.826 235.682 139.92C236.125 140.01 236.538 140.176 236.922 140.419C237.31 140.662 237.627 141.009 237.874 141.461C238.121 141.908 238.245 142.49 238.245 143.206V149.726H236.379V148.383H236.302C236.178 148.63 235.993 148.873 235.746 149.112C235.499 149.351 235.181 149.549 234.793 149.706C234.406 149.864 233.941 149.943 233.4 149.943ZM233.815 148.409C234.344 148.409 234.795 148.304 235.17 148.096C235.55 147.887 235.837 147.614 236.033 147.277C236.234 146.937 236.334 146.572 236.334 146.184V144.919C236.266 144.987 236.134 145.051 235.938 145.111C235.746 145.166 235.526 145.215 235.279 145.258C235.032 145.296 234.791 145.332 234.557 145.366C234.322 145.396 234.126 145.422 233.969 145.443C233.598 145.49 233.259 145.569 232.952 145.679C232.65 145.79 232.407 145.95 232.224 146.159C232.045 146.363 231.955 146.636 231.955 146.977C231.955 147.45 232.13 147.808 232.479 148.051C232.829 148.29 233.274 148.409 233.815 148.409ZM252.912 142.304L251.179 142.611C251.107 142.39 250.992 142.179 250.834 141.978C250.681 141.778 250.472 141.614 250.208 141.486C249.944 141.358 249.613 141.294 249.217 141.294C248.676 141.294 248.224 141.416 247.862 141.659C247.5 141.897 247.319 142.206 247.319 142.586C247.319 142.914 247.44 143.178 247.683 143.378C247.926 143.579 248.318 143.743 248.859 143.87L250.419 144.228C251.322 144.437 251.995 144.759 252.439 145.194C252.882 145.628 253.103 146.193 253.103 146.888C253.103 147.476 252.933 148 252.592 148.46C252.255 148.916 251.784 149.274 251.179 149.534C250.578 149.794 249.882 149.924 249.089 149.924C247.99 149.924 247.093 149.689 246.398 149.221C245.703 148.748 245.277 148.076 245.12 147.207L246.967 146.926C247.082 147.407 247.319 147.772 247.676 148.019C248.034 148.262 248.501 148.383 249.076 148.383C249.703 148.383 250.203 148.253 250.578 147.993C250.953 147.729 251.141 147.407 251.141 147.028C251.141 146.721 251.026 146.464 250.796 146.255C250.57 146.046 250.223 145.888 249.754 145.782L248.092 145.417C247.176 145.209 246.498 144.876 246.059 144.42C245.625 143.964 245.407 143.387 245.407 142.688C245.407 142.108 245.569 141.601 245.893 141.167C246.217 140.732 246.664 140.393 247.235 140.15C247.806 139.903 248.461 139.78 249.198 139.78C250.259 139.78 251.094 140.01 251.703 140.47C252.313 140.926 252.716 141.537 252.912 142.304ZM259.436 149.924C258.469 149.924 257.636 149.717 256.937 149.304C256.242 148.886 255.705 148.3 255.326 147.546C254.951 146.787 254.764 145.899 254.764 144.88C254.764 143.875 254.951 142.988 255.326 142.221C255.705 141.454 256.234 140.856 256.911 140.425C257.593 139.995 258.39 139.78 259.302 139.78C259.856 139.78 260.393 139.871 260.913 140.054C261.433 140.238 261.899 140.525 262.313 140.917C262.726 141.309 263.052 141.819 263.291 142.445C263.529 143.067 263.649 143.824 263.649 144.714V145.392H255.844V143.96H261.776C261.776 143.457 261.673 143.012 261.469 142.624C261.264 142.232 260.977 141.923 260.606 141.697C260.24 141.471 259.809 141.358 259.315 141.358C258.778 141.358 258.309 141.491 257.909 141.755C257.512 142.015 257.205 142.356 256.988 142.777C256.775 143.195 256.669 143.649 256.669 144.139V145.258C256.669 145.914 256.784 146.472 257.014 146.932C257.248 147.392 257.574 147.744 257.992 147.987C258.409 148.226 258.897 148.345 259.455 148.345C259.818 148.345 260.148 148.294 260.446 148.191C260.744 148.085 261.002 147.927 261.22 147.718C261.437 147.51 261.603 147.252 261.718 146.945L263.527 147.271C263.382 147.804 263.122 148.27 262.747 148.671C262.377 149.067 261.91 149.376 261.347 149.598C260.789 149.815 260.152 149.924 259.436 149.924ZM269.905 149.924C268.955 149.924 268.136 149.709 267.45 149.278C266.768 148.843 266.244 148.245 265.878 147.482C265.511 146.719 265.328 145.846 265.328 144.861C265.328 143.864 265.516 142.984 265.891 142.221C266.266 141.454 266.794 140.856 267.476 140.425C268.158 139.995 268.961 139.78 269.886 139.78C270.631 139.78 271.296 139.918 271.88 140.195C272.464 140.468 272.935 140.851 273.293 141.346C273.655 141.84 273.87 142.417 273.938 143.078H272.078C271.976 142.618 271.741 142.221 271.375 141.889C271.013 141.557 270.527 141.39 269.918 141.39C269.385 141.39 268.918 141.531 268.518 141.812C268.121 142.089 267.813 142.486 267.591 143.001C267.369 143.513 267.259 144.118 267.259 144.816C267.259 145.532 267.367 146.15 267.585 146.67C267.802 147.19 268.109 147.593 268.505 147.878C268.906 148.164 269.376 148.307 269.918 148.307C270.28 148.307 270.608 148.241 270.902 148.108C271.2 147.972 271.45 147.778 271.65 147.527C271.854 147.275 271.997 146.973 272.078 146.619H273.938C273.87 147.254 273.663 147.821 273.318 148.319C272.973 148.818 272.511 149.21 271.931 149.495C271.356 149.781 270.68 149.924 269.905 149.924ZM280.118 149.924C279.167 149.924 278.349 149.709 277.663 149.278C276.981 148.843 276.457 148.245 276.091 147.482C275.724 146.719 275.541 145.846 275.541 144.861C275.541 143.864 275.729 142.984 276.104 142.221C276.479 141.454 277.007 140.856 277.689 140.425C278.371 139.995 279.174 139.78 280.099 139.78C280.844 139.78 281.509 139.918 282.093 140.195C282.677 140.468 283.148 140.851 283.506 141.346C283.868 141.84 284.083 142.417 284.151 143.078H282.291C282.189 142.618 281.954 142.221 281.588 141.889C281.226 141.557 280.74 141.39 280.131 141.39C279.598 141.39 279.131 141.531 278.731 141.812C278.334 142.089 278.025 142.486 277.804 143.001C277.582 143.513 277.471 144.118 277.471 144.816C277.471 145.532 277.58 146.15 277.797 146.67C278.015 147.19 278.322 147.593 278.718 147.878C279.118 148.164 279.589 148.307 280.131 148.307C280.493 148.307 280.821 148.241 281.115 148.108C281.413 147.972 281.662 147.778 281.863 147.527C282.067 147.275 282.21 146.973 282.291 146.619H284.151C284.083 147.254 283.876 147.821 283.531 148.319C283.186 148.818 282.724 149.21 282.144 149.495C281.569 149.781 280.893 149.924 280.118 149.924ZM286.195 149.726V139.907H288.106V149.726H286.195ZM287.16 138.392C286.828 138.392 286.542 138.282 286.304 138.06C286.069 137.834 285.952 137.566 285.952 137.255C285.952 136.939 286.069 136.671 286.304 136.449C286.542 136.223 286.828 136.111 287.16 136.111C287.493 136.111 287.776 136.223 288.01 136.449C288.249 136.671 288.368 136.939 288.368 137.255C288.368 137.566 288.249 137.834 288.01 138.06C287.776 138.282 287.493 138.392 287.16 138.392ZM294.813 149.924C293.893 149.924 293.089 149.713 292.403 149.291C291.717 148.869 291.184 148.279 290.805 147.52C290.426 146.762 290.236 145.875 290.236 144.861C290.236 143.843 290.426 142.952 290.805 142.189C291.184 141.427 291.717 140.834 292.403 140.412C293.089 139.991 293.893 139.78 294.813 139.78C295.733 139.78 296.537 139.991 297.223 140.412C297.909 140.834 298.442 141.427 298.821 142.189C299.2 142.952 299.39 143.843 299.39 144.861C299.39 145.875 299.2 146.762 298.821 147.52C298.442 148.279 297.909 148.869 297.223 149.291C296.537 149.713 295.733 149.924 294.813 149.924ZM294.819 148.319C295.416 148.319 295.91 148.162 296.302 147.846C296.694 147.531 296.984 147.111 297.172 146.587C297.363 146.063 297.459 145.486 297.459 144.855C297.459 144.228 297.363 143.653 297.172 143.129C296.984 142.601 296.694 142.177 296.302 141.857C295.91 141.537 295.416 141.378 294.819 141.378C294.219 141.378 293.72 141.537 293.324 141.857C292.932 142.177 292.64 142.601 292.448 143.129C292.26 143.653 292.167 144.228 292.167 144.855C292.167 145.486 292.26 146.063 292.448 146.587C292.64 147.111 292.932 147.531 293.324 147.846C293.72 148.162 294.219 148.319 294.819 148.319ZM294.027 138.597L295.523 135.65H297.536L295.555 138.597H294.027ZM303.434 143.896V149.726H301.523V139.907H303.358V141.505H303.479C303.705 140.986 304.059 140.568 304.54 140.253C305.026 139.937 305.637 139.78 306.375 139.78C307.044 139.78 307.63 139.92 308.132 140.201C308.635 140.478 309.025 140.892 309.302 141.441C309.579 141.991 309.718 142.671 309.718 143.481V149.726H307.806V143.711C307.806 142.999 307.621 142.443 307.25 142.042C306.88 141.638 306.37 141.435 305.723 141.435C305.279 141.435 304.885 141.531 304.54 141.723C304.199 141.915 303.929 142.196 303.728 142.566C303.532 142.933 303.434 143.376 303.434 143.896Z" fill="#79280F"/>
</g>
<defs>
<filter id="filter0_i_687_2597" x="105.345" y="15.9814" width="116.108" height="99.8882" filterUnits="userSpaceOnUse" color-interpolation-filters="sRGB">
<feFlood flood-opacity="0" result="BackgroundImageFix"/>
<feBlend mode="normal" in="SourceGraphic" in2="BackgroundImageFix" result="shape"/>
<feColorMatrix in="SourceAlpha" type="matrix" values="0 0 0 0 0 0 0 0 0 0 0 0 0 0 0 0 0 0 127 0" result="hardAlpha"/>
<feOffset dy="4"/>
<feGaussianBlur stdDeviation="2"/>
<feComposite in2="hardAlpha" operator="arithmetic" k2="-1" k3="1"/>
<feColorMatrix type="matrix" values="0 0 0 0 0 0 0 0 0 0 0 0 0 0 0 0 0 0 0.25 0"/>
<feBlend mode="normal" in2="shape" result="effect1_innerShadow_687_2597"/>
</filter>
<filter id="filter1_b_687_2597" x="65.3451" y="-24.0186" width="196.108" height="175.888" filterUnits="userSpaceOnUse" color-interpolation-filters="sRGB">
<feFlood flood-opacity="0" result="BackgroundImageFix"/>
<feGaussianBlur in="BackgroundImageFix" stdDeviation="20"/>
<feComposite in2="SourceAlpha" operator="in" result="effect1_backgroundBlur_687_2597"/>
<feBlend mode="normal" in="SourceGraphic" in2="effect1_backgroundBlur_687_2597" result="shape"/>
</filter>
<filter id="filter2_b_687_2597" x="-2.55786" y="131.65" width="316.276" height="25.7568" filterUnits="userSpaceOnUse" color-interpolation-filters="sRGB">
<feFlood flood-opacity="0" result="BackgroundImageFix"/>
<feGaussianBlur in="BackgroundImageFix" stdDeviation="2"/>
<feComposite in2="SourceAlpha" operator="in" result="effect1_backgroundBlur_687_2597"/>
<feBlend mode="normal" in="SourceGraphic" in2="effect1_backgroundBlur_687_2597" result="shape"/>
</filter>
</defs>
</svg>
